%TF.GenerationSoftware,KiCad,Pcbnew,8.0.1*%
%TF.CreationDate,2024-12-19T13:08:09+01:00*%
%TF.ProjectId,on_off_switch,6f6e5f6f-6666-45f7-9377-697463682e6b,rev?*%
%TF.SameCoordinates,Original*%
%TF.FileFunction,Drillmap*%
%TF.FilePolarity,Positive*%
%FSLAX45Y45*%
G04 Gerber Fmt 4.5, Leading zero omitted, Abs format (unit mm)*
G04 Created by KiCad (PCBNEW 8.0.1) date 2024-12-19 13:08:09*
%MOMM*%
%LPD*%
G01*
G04 APERTURE LIST*
%ADD10C,0.200000*%
G04 APERTURE END LIST*
D10*
X13798000Y-4748000D02*
X13798000Y-5611669D01*
X14164000Y-5969013D01*
X14164000Y-7424050D01*
X11569000Y-7424261D01*
X11569000Y-4642000D01*
X13692000Y-4642000D01*
X13798000Y-4748000D01*
X11819777Y-7745745D02*
X11819777Y-7545745D01*
X11819777Y-7545745D02*
X11867396Y-7545745D01*
X11867396Y-7545745D02*
X11895967Y-7555268D01*
X11895967Y-7555268D02*
X11915015Y-7574316D01*
X11915015Y-7574316D02*
X11924539Y-7593364D01*
X11924539Y-7593364D02*
X11934062Y-7631459D01*
X11934062Y-7631459D02*
X11934062Y-7660030D01*
X11934062Y-7660030D02*
X11924539Y-7698126D01*
X11924539Y-7698126D02*
X11915015Y-7717173D01*
X11915015Y-7717173D02*
X11895967Y-7736221D01*
X11895967Y-7736221D02*
X11867396Y-7745745D01*
X11867396Y-7745745D02*
X11819777Y-7745745D01*
X12019777Y-7745745D02*
X12019777Y-7612411D01*
X12019777Y-7650507D02*
X12029301Y-7631459D01*
X12029301Y-7631459D02*
X12038824Y-7621935D01*
X12038824Y-7621935D02*
X12057872Y-7612411D01*
X12057872Y-7612411D02*
X12076920Y-7612411D01*
X12143586Y-7745745D02*
X12143586Y-7612411D01*
X12143586Y-7545745D02*
X12134062Y-7555268D01*
X12134062Y-7555268D02*
X12143586Y-7564792D01*
X12143586Y-7564792D02*
X12153110Y-7555268D01*
X12153110Y-7555268D02*
X12143586Y-7545745D01*
X12143586Y-7545745D02*
X12143586Y-7564792D01*
X12267396Y-7745745D02*
X12248348Y-7736221D01*
X12248348Y-7736221D02*
X12238824Y-7717173D01*
X12238824Y-7717173D02*
X12238824Y-7545745D01*
X12372158Y-7745745D02*
X12353110Y-7736221D01*
X12353110Y-7736221D02*
X12343586Y-7717173D01*
X12343586Y-7717173D02*
X12343586Y-7545745D01*
X12600729Y-7745745D02*
X12600729Y-7545745D01*
X12600729Y-7545745D02*
X12667396Y-7688602D01*
X12667396Y-7688602D02*
X12734062Y-7545745D01*
X12734062Y-7545745D02*
X12734062Y-7745745D01*
X12915015Y-7745745D02*
X12915015Y-7640983D01*
X12915015Y-7640983D02*
X12905491Y-7621935D01*
X12905491Y-7621935D02*
X12886443Y-7612411D01*
X12886443Y-7612411D02*
X12848348Y-7612411D01*
X12848348Y-7612411D02*
X12829301Y-7621935D01*
X12915015Y-7736221D02*
X12895967Y-7745745D01*
X12895967Y-7745745D02*
X12848348Y-7745745D01*
X12848348Y-7745745D02*
X12829301Y-7736221D01*
X12829301Y-7736221D02*
X12819777Y-7717173D01*
X12819777Y-7717173D02*
X12819777Y-7698126D01*
X12819777Y-7698126D02*
X12829301Y-7679078D01*
X12829301Y-7679078D02*
X12848348Y-7669554D01*
X12848348Y-7669554D02*
X12895967Y-7669554D01*
X12895967Y-7669554D02*
X12915015Y-7660030D01*
X13010253Y-7612411D02*
X13010253Y-7812411D01*
X13010253Y-7621935D02*
X13029301Y-7612411D01*
X13029301Y-7612411D02*
X13067396Y-7612411D01*
X13067396Y-7612411D02*
X13086443Y-7621935D01*
X13086443Y-7621935D02*
X13095967Y-7631459D01*
X13095967Y-7631459D02*
X13105491Y-7650507D01*
X13105491Y-7650507D02*
X13105491Y-7707649D01*
X13105491Y-7707649D02*
X13095967Y-7726697D01*
X13095967Y-7726697D02*
X13086443Y-7736221D01*
X13086443Y-7736221D02*
X13067396Y-7745745D01*
X13067396Y-7745745D02*
X13029301Y-7745745D01*
X13029301Y-7745745D02*
X13010253Y-7736221D01*
X13191205Y-7726697D02*
X13200729Y-7736221D01*
X13200729Y-7736221D02*
X13191205Y-7745745D01*
X13191205Y-7745745D02*
X13181682Y-7736221D01*
X13181682Y-7736221D02*
X13191205Y-7726697D01*
X13191205Y-7726697D02*
X13191205Y-7745745D01*
X13191205Y-7621935D02*
X13200729Y-7631459D01*
X13200729Y-7631459D02*
X13191205Y-7640983D01*
X13191205Y-7640983D02*
X13181682Y-7631459D01*
X13181682Y-7631459D02*
X13191205Y-7621935D01*
X13191205Y-7621935D02*
X13191205Y-7640983D01*
M02*
