M48
; DRILL file {KiCad 8.0.1} date 2024-12-19T13:08:09+0100
; FORMAT={-:-/ absolute / inch / decimal}
; #@! TF.CreationDate,2024-12-19T13:08:09+01:00
; #@! TF.GenerationSoftware,Kicad,Pcbnew,8.0.1
; #@! TF.FileFunction,Plated,1,2,PTH
FMAT,2
INCH
; #@! TA.AperFunction,Plated,PTH,ComponentDrill
T1C0.0197
; #@! TA.AperFunction,Plated,PTH,ComponentDrill
T2C0.0315
; #@! TA.AperFunction,Plated,PTH,ComponentDrill
T3C0.0433
; #@! TA.AperFunction,Plated,PTH,ComponentDrill
T4C0.0866
%
G90
G05
T1
X4.7213Y-2.8091
X4.8134Y-2.8091
X4.9055Y-2.8094
X4.998Y-2.8091
X5.0902Y-2.8091
T2
X5.1984Y-2.4858
X5.1984Y-2.7858
X5.2984Y-2.4858
X5.2984Y-2.7858
X5.3984Y-2.4858
X5.3984Y-2.7858
X5.4984Y-2.4858
X5.4984Y-2.7858
T3
X4.9285Y-1.9748
X4.9285Y-2.1748
X5.0285Y-1.9748
X5.0285Y-2.1748
X5.3285Y-1.9748
X5.3285Y-2.1748
T4
X4.6492Y-2.4539
X4.65Y-2.6598
X4.6763Y-1.9933
X4.6763Y-2.2039
M30
