%TF.GenerationSoftware,KiCad,Pcbnew,8.0.1*%
%TF.CreationDate,2024-12-19T13:08:11+01:00*%
%TF.ProjectId,on_off_switch,6f6e5f6f-6666-45f7-9377-697463682e6b,rev?*%
%TF.SameCoordinates,Original*%
%TF.FileFunction,Copper,L2,Bot*%
%TF.FilePolarity,Positive*%
%FSLAX46Y46*%
G04 Gerber Fmt 4.6, Leading zero omitted, Abs format (unit mm)*
G04 Created by KiCad (PCBNEW 8.0.1) date 2024-12-19 13:08:11*
%MOMM*%
%LPD*%
G01*
G04 APERTURE LIST*
%TA.AperFunction,ComponentPad*%
%ADD10C,3.800000*%
%TD*%
%TA.AperFunction,ComponentPad*%
%ADD11R,0.850000X0.850000*%
%TD*%
%TA.AperFunction,ComponentPad*%
%ADD12C,1.650000*%
%TD*%
%TA.AperFunction,ComponentPad*%
%ADD13R,1.600000X1.600000*%
%TD*%
%TA.AperFunction,ComponentPad*%
%ADD14O,1.600000X1.600000*%
%TD*%
%TA.AperFunction,Conductor*%
%ADD15C,0.350000*%
%TD*%
%TA.AperFunction,Conductor*%
%ADD16C,0.600000*%
%TD*%
G04 APERTURE END LIST*
D10*
%TO.P,+12V,1,1*%
%TO.N,+12V*%
X118110000Y-67560000D03*
%TD*%
%TO.P,GND,1,1*%
%TO.N,GND*%
X118090000Y-62330000D03*
%TD*%
D11*
%TO.P,PB1,1,1*%
%TO.N,Net-(U1-PB1)*%
X126950000Y-71350000D03*
%TD*%
D12*
%TO.P,K1,1,NC*%
%TO.N,unconnected-(K1-NC-Pad1)*%
X125185000Y-55240000D03*
%TO.P,K1,2,COIL_1*%
%TO.N,+5V*%
X127725000Y-55240000D03*
%TO.P,K1,3,COM_1*%
%TO.N,unconnected-(K1-COM_1-Pad3)*%
X135345000Y-55240000D03*
%TO.P,K1,4,COM_2*%
%TO.N,MCU_PIN_AS&G*%
X135345000Y-50160000D03*
%TO.P,K1,5,COIL_2*%
%TO.N,Net-(D1-A)*%
X127725000Y-50160000D03*
%TO.P,K1,6,NO*%
%TO.N,12VSIGNAL_PIN_AS&G*%
X125185000Y-50160000D03*
%TD*%
D10*
%TO.P,NO,1,1*%
%TO.N,12VSIGNAL_PIN_AS&G*%
X118777500Y-50630000D03*
%TD*%
%TO.P,COM,1,1*%
%TO.N,MCU_PIN_AS&G*%
X118777500Y-55980000D03*
%TD*%
D11*
%TO.P,PB4,1,1*%
%TO.N,Net-(U1-PB4)*%
X119920000Y-71350000D03*
%TD*%
%TO.P,PB0,1,1*%
%TO.N,Net-(U1-PB0)*%
X129290000Y-71350000D03*
%TD*%
D13*
%TO.P,U1,1,~{RESET}/PB5*%
%TO.N,Net-(U1-~{RESET}{slash}PB5)*%
X139660000Y-63140000D03*
D14*
%TO.P,U1,2,PB3*%
%TO.N,base_signal*%
X137120000Y-63140000D03*
%TO.P,U1,3,PB4*%
%TO.N,Net-(U1-PB4)*%
X134580000Y-63140000D03*
%TO.P,U1,4,GND*%
%TO.N,GND*%
X132040000Y-63140000D03*
%TO.P,U1,5,PB0*%
%TO.N,Net-(U1-PB0)*%
X132040000Y-70760000D03*
%TO.P,U1,6,PB1*%
%TO.N,Net-(U1-PB1)*%
X134580000Y-70760000D03*
%TO.P,U1,7,PB2*%
%TO.N,Net-(U1-PB2)*%
X137120000Y-70760000D03*
%TO.P,U1,8,VCC*%
%TO.N,+5V*%
X139660000Y-70760000D03*
%TD*%
D11*
%TO.P,PB5,1,1*%
%TO.N,Net-(U1-~{RESET}{slash}PB5)*%
X122260000Y-71350000D03*
%TD*%
%TO.P,PB2,1,1*%
%TO.N,Net-(U1-PB2)*%
X124600000Y-71360000D03*
%TD*%
D15*
%TO.N,Net-(U1-PB0)*%
X131450000Y-71350000D02*
X132040000Y-70760000D01*
X129290000Y-71350000D02*
X131450000Y-71350000D01*
%TO.N,Net-(U1-PB1)*%
X128715000Y-69585000D02*
X133405000Y-69585000D01*
X126950000Y-71350000D02*
X128715000Y-69585000D01*
X133405000Y-69585000D02*
X134580000Y-70760000D01*
%TO.N,Net-(U1-PB2)*%
X135395000Y-69035000D02*
X137120000Y-70760000D01*
X126925000Y-69035000D02*
X135395000Y-69035000D01*
X124600000Y-71360000D02*
X126925000Y-69035000D01*
%TO.N,Net-(U1-~{RESET}{slash}PB5)*%
X137935000Y-64865000D02*
X139660000Y-63140000D01*
X128745000Y-64865000D02*
X137935000Y-64865000D01*
X122260000Y-71350000D02*
X128745000Y-64865000D01*
%TO.N,Net-(U1-PB4)*%
X126465000Y-64315000D02*
X119920000Y-70860000D01*
X133405000Y-64315000D02*
X126465000Y-64315000D01*
X119920000Y-70860000D02*
X119920000Y-71350000D01*
X134580000Y-63140000D02*
X133405000Y-64315000D01*
D16*
%TO.N,GND*%
X119370000Y-63140000D02*
X118580000Y-62350000D01*
X132040000Y-63140000D02*
X119370000Y-63140000D01*
%TD*%
M02*
