%TF.GenerationSoftware,KiCad,Pcbnew,8.0.1*%
%TF.CreationDate,2024-12-19T13:08:09+01:00*%
%TF.ProjectId,on_off_switch,6f6e5f6f-6666-45f7-9377-697463682e6b,rev?*%
%TF.SameCoordinates,Original*%
%TF.FileFunction,Drillmap*%
%TF.FilePolarity,Positive*%
%FSLAX45Y45*%
G04 Gerber Fmt 4.5, Leading zero omitted, Abs format (unit mm)*
G04 Created by KiCad (PCBNEW 8.0.1) date 2024-12-19 13:08:09*
%MOMM*%
%LPD*%
G01*
G04 APERTURE LIST*
%ADD10C,0.200000*%
%ADD11C,0.100000*%
%ADD12C,0.110000*%
%ADD13C,0.220000*%
G04 APERTURE END LIST*
D10*
X13798000Y-4748000D02*
X13798000Y-5611669D01*
X14164000Y-5969013D01*
X14164000Y-7424050D01*
X11569000Y-7424261D01*
X11569000Y-4642000D01*
X13692000Y-4642000D01*
X13798000Y-4748000D01*
D11*
X11967000Y-7110000D02*
X12017000Y-7160000D01*
X12017000Y-7110000D02*
X11967000Y-7160000D01*
X12201000Y-7110000D02*
X12251000Y-7160000D01*
X12251000Y-7110000D02*
X12201000Y-7160000D01*
X12435000Y-7111000D02*
X12485000Y-7161000D01*
X12485000Y-7111000D02*
X12435000Y-7161000D01*
X12670000Y-7110000D02*
X12720000Y-7160000D01*
X12720000Y-7110000D02*
X12670000Y-7160000D01*
X12904000Y-7110000D02*
X12954000Y-7160000D01*
X12954000Y-7110000D02*
X12904000Y-7160000D01*
X13244000Y-6314000D02*
G75*
G02*
X13164000Y-6314000I-40000J0D01*
G01*
X13164000Y-6314000D02*
G75*
G02*
X13244000Y-6314000I40000J0D01*
G01*
X13244000Y-7076000D02*
G75*
G02*
X13164000Y-7076000I-40000J0D01*
G01*
X13164000Y-7076000D02*
G75*
G02*
X13244000Y-7076000I40000J0D01*
G01*
X13498000Y-6314000D02*
G75*
G02*
X13418000Y-6314000I-40000J0D01*
G01*
X13418000Y-6314000D02*
G75*
G02*
X13498000Y-6314000I40000J0D01*
G01*
X13498000Y-7076000D02*
G75*
G02*
X13418000Y-7076000I-40000J0D01*
G01*
X13418000Y-7076000D02*
G75*
G02*
X13498000Y-7076000I40000J0D01*
G01*
X13752000Y-6314000D02*
G75*
G02*
X13672000Y-6314000I-40000J0D01*
G01*
X13672000Y-6314000D02*
G75*
G02*
X13752000Y-6314000I40000J0D01*
G01*
X13752000Y-7076000D02*
G75*
G02*
X13672000Y-7076000I-40000J0D01*
G01*
X13672000Y-7076000D02*
G75*
G02*
X13752000Y-7076000I40000J0D01*
G01*
X14006000Y-6314000D02*
G75*
G02*
X13926000Y-6314000I-40000J0D01*
G01*
X13926000Y-6314000D02*
G75*
G02*
X14006000Y-6314000I40000J0D01*
G01*
X14006000Y-7076000D02*
G75*
G02*
X13926000Y-7076000I-40000J0D01*
G01*
X13926000Y-7076000D02*
G75*
G02*
X14006000Y-7076000I40000J0D01*
G01*
D12*
X12518500Y-4961000D02*
X12518500Y-5071000D01*
X12463500Y-5016000D02*
X12573500Y-5016000D01*
X12518500Y-5469000D02*
X12518500Y-5579000D01*
X12463500Y-5524000D02*
X12573500Y-5524000D01*
X12772500Y-4961000D02*
X12772500Y-5071000D01*
X12717500Y-5016000D02*
X12827500Y-5016000D01*
X12772500Y-5469000D02*
X12772500Y-5579000D01*
X12717500Y-5524000D02*
X12827500Y-5524000D01*
X13534500Y-4961000D02*
X13534500Y-5071000D01*
X13479500Y-5016000D02*
X13589500Y-5016000D01*
X13534500Y-5469000D02*
X13534500Y-5579000D01*
X13479500Y-5524000D02*
X13589500Y-5524000D01*
D13*
X11886782Y-6310782D02*
X11886782Y-6155217D01*
X11731217Y-6155217D01*
X11731217Y-6310782D01*
X11886782Y-6310782D01*
X11888782Y-6833782D02*
X11888782Y-6678217D01*
X11733217Y-6678217D01*
X11733217Y-6833782D01*
X11888782Y-6833782D01*
X11955532Y-5140783D02*
X11955532Y-4985218D01*
X11799967Y-4985218D01*
X11799967Y-5140783D01*
X11955532Y-5140783D01*
X11955532Y-5675782D02*
X11955532Y-5520218D01*
X11799967Y-5520218D01*
X11799967Y-5675782D01*
X11955532Y-5675782D01*
D10*
X11819777Y-7745745D02*
X11819777Y-7545745D01*
X11819777Y-7545745D02*
X11867396Y-7545745D01*
X11867396Y-7545745D02*
X11895967Y-7555268D01*
X11895967Y-7555268D02*
X11915015Y-7574316D01*
X11915015Y-7574316D02*
X11924539Y-7593364D01*
X11924539Y-7593364D02*
X11934062Y-7631459D01*
X11934062Y-7631459D02*
X11934062Y-7660030D01*
X11934062Y-7660030D02*
X11924539Y-7698126D01*
X11924539Y-7698126D02*
X11915015Y-7717173D01*
X11915015Y-7717173D02*
X11895967Y-7736221D01*
X11895967Y-7736221D02*
X11867396Y-7745745D01*
X11867396Y-7745745D02*
X11819777Y-7745745D01*
X12019777Y-7745745D02*
X12019777Y-7612411D01*
X12019777Y-7650507D02*
X12029301Y-7631459D01*
X12029301Y-7631459D02*
X12038824Y-7621935D01*
X12038824Y-7621935D02*
X12057872Y-7612411D01*
X12057872Y-7612411D02*
X12076920Y-7612411D01*
X12143586Y-7745745D02*
X12143586Y-7612411D01*
X12143586Y-7545745D02*
X12134062Y-7555268D01*
X12134062Y-7555268D02*
X12143586Y-7564792D01*
X12143586Y-7564792D02*
X12153110Y-7555268D01*
X12153110Y-7555268D02*
X12143586Y-7545745D01*
X12143586Y-7545745D02*
X12143586Y-7564792D01*
X12267396Y-7745745D02*
X12248348Y-7736221D01*
X12248348Y-7736221D02*
X12238824Y-7717173D01*
X12238824Y-7717173D02*
X12238824Y-7545745D01*
X12372158Y-7745745D02*
X12353110Y-7736221D01*
X12353110Y-7736221D02*
X12343586Y-7717173D01*
X12343586Y-7717173D02*
X12343586Y-7545745D01*
X12600729Y-7745745D02*
X12600729Y-7545745D01*
X12600729Y-7545745D02*
X12667396Y-7688602D01*
X12667396Y-7688602D02*
X12734062Y-7545745D01*
X12734062Y-7545745D02*
X12734062Y-7745745D01*
X12915015Y-7745745D02*
X12915015Y-7640983D01*
X12915015Y-7640983D02*
X12905491Y-7621935D01*
X12905491Y-7621935D02*
X12886443Y-7612411D01*
X12886443Y-7612411D02*
X12848348Y-7612411D01*
X12848348Y-7612411D02*
X12829301Y-7621935D01*
X12915015Y-7736221D02*
X12895967Y-7745745D01*
X12895967Y-7745745D02*
X12848348Y-7745745D01*
X12848348Y-7745745D02*
X12829301Y-7736221D01*
X12829301Y-7736221D02*
X12819777Y-7717173D01*
X12819777Y-7717173D02*
X12819777Y-7698126D01*
X12819777Y-7698126D02*
X12829301Y-7679078D01*
X12829301Y-7679078D02*
X12848348Y-7669554D01*
X12848348Y-7669554D02*
X12895967Y-7669554D01*
X12895967Y-7669554D02*
X12915015Y-7660030D01*
X13010253Y-7612411D02*
X13010253Y-7812411D01*
X13010253Y-7621935D02*
X13029301Y-7612411D01*
X13029301Y-7612411D02*
X13067396Y-7612411D01*
X13067396Y-7612411D02*
X13086443Y-7621935D01*
X13086443Y-7621935D02*
X13095967Y-7631459D01*
X13095967Y-7631459D02*
X13105491Y-7650507D01*
X13105491Y-7650507D02*
X13105491Y-7707649D01*
X13105491Y-7707649D02*
X13095967Y-7726697D01*
X13095967Y-7726697D02*
X13086443Y-7736221D01*
X13086443Y-7736221D02*
X13067396Y-7745745D01*
X13067396Y-7745745D02*
X13029301Y-7745745D01*
X13029301Y-7745745D02*
X13010253Y-7736221D01*
X13191205Y-7726697D02*
X13200729Y-7736221D01*
X13200729Y-7736221D02*
X13191205Y-7745745D01*
X13191205Y-7745745D02*
X13181682Y-7736221D01*
X13181682Y-7736221D02*
X13191205Y-7726697D01*
X13191205Y-7726697D02*
X13191205Y-7745745D01*
X13191205Y-7621935D02*
X13200729Y-7631459D01*
X13200729Y-7631459D02*
X13191205Y-7640983D01*
X13191205Y-7640983D02*
X13181682Y-7631459D01*
X13181682Y-7631459D02*
X13191205Y-7621935D01*
X13191205Y-7621935D02*
X13191205Y-7640983D01*
D11*
X11509000Y-8049261D02*
X11559000Y-8099261D01*
X11559000Y-8049261D02*
X11509000Y-8099261D01*
D10*
X11857872Y-7965745D02*
X11876920Y-7965745D01*
X11876920Y-7965745D02*
X11895967Y-7975268D01*
X11895967Y-7975268D02*
X11905491Y-7984792D01*
X11905491Y-7984792D02*
X11915015Y-8003840D01*
X11915015Y-8003840D02*
X11924539Y-8041935D01*
X11924539Y-8041935D02*
X11924539Y-8089554D01*
X11924539Y-8089554D02*
X11915015Y-8127649D01*
X11915015Y-8127649D02*
X11905491Y-8146697D01*
X11905491Y-8146697D02*
X11895967Y-8156221D01*
X11895967Y-8156221D02*
X11876920Y-8165745D01*
X11876920Y-8165745D02*
X11857872Y-8165745D01*
X11857872Y-8165745D02*
X11838824Y-8156221D01*
X11838824Y-8156221D02*
X11829301Y-8146697D01*
X11829301Y-8146697D02*
X11819777Y-8127649D01*
X11819777Y-8127649D02*
X11810253Y-8089554D01*
X11810253Y-8089554D02*
X11810253Y-8041935D01*
X11810253Y-8041935D02*
X11819777Y-8003840D01*
X11819777Y-8003840D02*
X11829301Y-7984792D01*
X11829301Y-7984792D02*
X11838824Y-7975268D01*
X11838824Y-7975268D02*
X11857872Y-7965745D01*
X12010253Y-8146697D02*
X12019777Y-8156221D01*
X12019777Y-8156221D02*
X12010253Y-8165745D01*
X12010253Y-8165745D02*
X12000729Y-8156221D01*
X12000729Y-8156221D02*
X12010253Y-8146697D01*
X12010253Y-8146697D02*
X12010253Y-8165745D01*
X12200729Y-7965745D02*
X12105491Y-7965745D01*
X12105491Y-7965745D02*
X12095967Y-8060983D01*
X12095967Y-8060983D02*
X12105491Y-8051459D01*
X12105491Y-8051459D02*
X12124539Y-8041935D01*
X12124539Y-8041935D02*
X12172158Y-8041935D01*
X12172158Y-8041935D02*
X12191205Y-8051459D01*
X12191205Y-8051459D02*
X12200729Y-8060983D01*
X12200729Y-8060983D02*
X12210253Y-8080030D01*
X12210253Y-8080030D02*
X12210253Y-8127649D01*
X12210253Y-8127649D02*
X12200729Y-8146697D01*
X12200729Y-8146697D02*
X12191205Y-8156221D01*
X12191205Y-8156221D02*
X12172158Y-8165745D01*
X12172158Y-8165745D02*
X12124539Y-8165745D01*
X12124539Y-8165745D02*
X12105491Y-8156221D01*
X12105491Y-8156221D02*
X12095967Y-8146697D01*
X12334062Y-7965745D02*
X12353110Y-7965745D01*
X12353110Y-7965745D02*
X12372158Y-7975268D01*
X12372158Y-7975268D02*
X12381682Y-7984792D01*
X12381682Y-7984792D02*
X12391205Y-8003840D01*
X12391205Y-8003840D02*
X12400729Y-8041935D01*
X12400729Y-8041935D02*
X12400729Y-8089554D01*
X12400729Y-8089554D02*
X12391205Y-8127649D01*
X12391205Y-8127649D02*
X12381682Y-8146697D01*
X12381682Y-8146697D02*
X12372158Y-8156221D01*
X12372158Y-8156221D02*
X12353110Y-8165745D01*
X12353110Y-8165745D02*
X12334062Y-8165745D01*
X12334062Y-8165745D02*
X12315015Y-8156221D01*
X12315015Y-8156221D02*
X12305491Y-8146697D01*
X12305491Y-8146697D02*
X12295967Y-8127649D01*
X12295967Y-8127649D02*
X12286443Y-8089554D01*
X12286443Y-8089554D02*
X12286443Y-8041935D01*
X12286443Y-8041935D02*
X12295967Y-8003840D01*
X12295967Y-8003840D02*
X12305491Y-7984792D01*
X12305491Y-7984792D02*
X12315015Y-7975268D01*
X12315015Y-7975268D02*
X12334062Y-7965745D01*
X12524539Y-7965745D02*
X12543586Y-7965745D01*
X12543586Y-7965745D02*
X12562634Y-7975268D01*
X12562634Y-7975268D02*
X12572158Y-7984792D01*
X12572158Y-7984792D02*
X12581682Y-8003840D01*
X12581682Y-8003840D02*
X12591205Y-8041935D01*
X12591205Y-8041935D02*
X12591205Y-8089554D01*
X12591205Y-8089554D02*
X12581682Y-8127649D01*
X12581682Y-8127649D02*
X12572158Y-8146697D01*
X12572158Y-8146697D02*
X12562634Y-8156221D01*
X12562634Y-8156221D02*
X12543586Y-8165745D01*
X12543586Y-8165745D02*
X12524539Y-8165745D01*
X12524539Y-8165745D02*
X12505491Y-8156221D01*
X12505491Y-8156221D02*
X12495967Y-8146697D01*
X12495967Y-8146697D02*
X12486443Y-8127649D01*
X12486443Y-8127649D02*
X12476920Y-8089554D01*
X12476920Y-8089554D02*
X12476920Y-8041935D01*
X12476920Y-8041935D02*
X12486443Y-8003840D01*
X12486443Y-8003840D02*
X12495967Y-7984792D01*
X12495967Y-7984792D02*
X12505491Y-7975268D01*
X12505491Y-7975268D02*
X12524539Y-7965745D01*
X12676920Y-8165745D02*
X12676920Y-8032411D01*
X12676920Y-8051459D02*
X12686443Y-8041935D01*
X12686443Y-8041935D02*
X12705491Y-8032411D01*
X12705491Y-8032411D02*
X12734063Y-8032411D01*
X12734063Y-8032411D02*
X12753110Y-8041935D01*
X12753110Y-8041935D02*
X12762634Y-8060983D01*
X12762634Y-8060983D02*
X12762634Y-8165745D01*
X12762634Y-8060983D02*
X12772158Y-8041935D01*
X12772158Y-8041935D02*
X12791205Y-8032411D01*
X12791205Y-8032411D02*
X12819777Y-8032411D01*
X12819777Y-8032411D02*
X12838824Y-8041935D01*
X12838824Y-8041935D02*
X12848348Y-8060983D01*
X12848348Y-8060983D02*
X12848348Y-8165745D01*
X12943586Y-8165745D02*
X12943586Y-8032411D01*
X12943586Y-8051459D02*
X12953110Y-8041935D01*
X12953110Y-8041935D02*
X12972158Y-8032411D01*
X12972158Y-8032411D02*
X13000729Y-8032411D01*
X13000729Y-8032411D02*
X13019777Y-8041935D01*
X13019777Y-8041935D02*
X13029301Y-8060983D01*
X13029301Y-8060983D02*
X13029301Y-8165745D01*
X13029301Y-8060983D02*
X13038824Y-8041935D01*
X13038824Y-8041935D02*
X13057872Y-8032411D01*
X13057872Y-8032411D02*
X13086443Y-8032411D01*
X13086443Y-8032411D02*
X13105491Y-8041935D01*
X13105491Y-8041935D02*
X13115015Y-8060983D01*
X13115015Y-8060983D02*
X13115015Y-8165745D01*
X13505491Y-7956221D02*
X13334063Y-8213364D01*
X13762634Y-7965745D02*
X13781682Y-7965745D01*
X13781682Y-7965745D02*
X13800729Y-7975268D01*
X13800729Y-7975268D02*
X13810253Y-7984792D01*
X13810253Y-7984792D02*
X13819777Y-8003840D01*
X13819777Y-8003840D02*
X13829301Y-8041935D01*
X13829301Y-8041935D02*
X13829301Y-8089554D01*
X13829301Y-8089554D02*
X13819777Y-8127649D01*
X13819777Y-8127649D02*
X13810253Y-8146697D01*
X13810253Y-8146697D02*
X13800729Y-8156221D01*
X13800729Y-8156221D02*
X13781682Y-8165745D01*
X13781682Y-8165745D02*
X13762634Y-8165745D01*
X13762634Y-8165745D02*
X13743586Y-8156221D01*
X13743586Y-8156221D02*
X13734063Y-8146697D01*
X13734063Y-8146697D02*
X13724539Y-8127649D01*
X13724539Y-8127649D02*
X13715015Y-8089554D01*
X13715015Y-8089554D02*
X13715015Y-8041935D01*
X13715015Y-8041935D02*
X13724539Y-8003840D01*
X13724539Y-8003840D02*
X13734063Y-7984792D01*
X13734063Y-7984792D02*
X13743586Y-7975268D01*
X13743586Y-7975268D02*
X13762634Y-7965745D01*
X13915015Y-8146697D02*
X13924539Y-8156221D01*
X13924539Y-8156221D02*
X13915015Y-8165745D01*
X13915015Y-8165745D02*
X13905491Y-8156221D01*
X13905491Y-8156221D02*
X13915015Y-8146697D01*
X13915015Y-8146697D02*
X13915015Y-8165745D01*
X14048348Y-7965745D02*
X14067396Y-7965745D01*
X14067396Y-7965745D02*
X14086444Y-7975268D01*
X14086444Y-7975268D02*
X14095967Y-7984792D01*
X14095967Y-7984792D02*
X14105491Y-8003840D01*
X14105491Y-8003840D02*
X14115015Y-8041935D01*
X14115015Y-8041935D02*
X14115015Y-8089554D01*
X14115015Y-8089554D02*
X14105491Y-8127649D01*
X14105491Y-8127649D02*
X14095967Y-8146697D01*
X14095967Y-8146697D02*
X14086444Y-8156221D01*
X14086444Y-8156221D02*
X14067396Y-8165745D01*
X14067396Y-8165745D02*
X14048348Y-8165745D01*
X14048348Y-8165745D02*
X14029301Y-8156221D01*
X14029301Y-8156221D02*
X14019777Y-8146697D01*
X14019777Y-8146697D02*
X14010253Y-8127649D01*
X14010253Y-8127649D02*
X14000729Y-8089554D01*
X14000729Y-8089554D02*
X14000729Y-8041935D01*
X14000729Y-8041935D02*
X14010253Y-8003840D01*
X14010253Y-8003840D02*
X14019777Y-7984792D01*
X14019777Y-7984792D02*
X14029301Y-7975268D01*
X14029301Y-7975268D02*
X14048348Y-7965745D01*
X14305491Y-8165745D02*
X14191206Y-8165745D01*
X14248348Y-8165745D02*
X14248348Y-7965745D01*
X14248348Y-7965745D02*
X14229301Y-7994316D01*
X14229301Y-7994316D02*
X14210253Y-8013364D01*
X14210253Y-8013364D02*
X14191206Y-8022887D01*
X14400729Y-8165745D02*
X14438825Y-8165745D01*
X14438825Y-8165745D02*
X14457872Y-8156221D01*
X14457872Y-8156221D02*
X14467396Y-8146697D01*
X14467396Y-8146697D02*
X14486444Y-8118126D01*
X14486444Y-8118126D02*
X14495967Y-8080030D01*
X14495967Y-8080030D02*
X14495967Y-8003840D01*
X14495967Y-8003840D02*
X14486444Y-7984792D01*
X14486444Y-7984792D02*
X14476920Y-7975268D01*
X14476920Y-7975268D02*
X14457872Y-7965745D01*
X14457872Y-7965745D02*
X14419777Y-7965745D01*
X14419777Y-7965745D02*
X14400729Y-7975268D01*
X14400729Y-7975268D02*
X14391206Y-7984792D01*
X14391206Y-7984792D02*
X14381682Y-8003840D01*
X14381682Y-8003840D02*
X14381682Y-8051459D01*
X14381682Y-8051459D02*
X14391206Y-8070507D01*
X14391206Y-8070507D02*
X14400729Y-8080030D01*
X14400729Y-8080030D02*
X14419777Y-8089554D01*
X14419777Y-8089554D02*
X14457872Y-8089554D01*
X14457872Y-8089554D02*
X14476920Y-8080030D01*
X14476920Y-8080030D02*
X14486444Y-8070507D01*
X14486444Y-8070507D02*
X14495967Y-8051459D01*
X14562634Y-7965745D02*
X14695967Y-7965745D01*
X14695967Y-7965745D02*
X14610253Y-8165745D01*
X14762634Y-7965745D02*
X14762634Y-8003840D01*
X14838825Y-7965745D02*
X14838825Y-8003840D01*
X15134063Y-8241935D02*
X15124539Y-8232411D01*
X15124539Y-8232411D02*
X15105491Y-8203840D01*
X15105491Y-8203840D02*
X15095968Y-8184792D01*
X15095968Y-8184792D02*
X15086444Y-8156221D01*
X15086444Y-8156221D02*
X15076920Y-8108602D01*
X15076920Y-8108602D02*
X15076920Y-8070507D01*
X15076920Y-8070507D02*
X15086444Y-8022887D01*
X15086444Y-8022887D02*
X15095968Y-7994316D01*
X15095968Y-7994316D02*
X15105491Y-7975268D01*
X15105491Y-7975268D02*
X15124539Y-7946697D01*
X15124539Y-7946697D02*
X15134063Y-7937173D01*
X15305491Y-7965745D02*
X15210253Y-7965745D01*
X15210253Y-7965745D02*
X15200729Y-8060983D01*
X15200729Y-8060983D02*
X15210253Y-8051459D01*
X15210253Y-8051459D02*
X15229301Y-8041935D01*
X15229301Y-8041935D02*
X15276920Y-8041935D01*
X15276920Y-8041935D02*
X15295968Y-8051459D01*
X15295968Y-8051459D02*
X15305491Y-8060983D01*
X15305491Y-8060983D02*
X15315015Y-8080030D01*
X15315015Y-8080030D02*
X15315015Y-8127649D01*
X15315015Y-8127649D02*
X15305491Y-8146697D01*
X15305491Y-8146697D02*
X15295968Y-8156221D01*
X15295968Y-8156221D02*
X15276920Y-8165745D01*
X15276920Y-8165745D02*
X15229301Y-8165745D01*
X15229301Y-8165745D02*
X15210253Y-8156221D01*
X15210253Y-8156221D02*
X15200729Y-8146697D01*
X15553110Y-8165745D02*
X15553110Y-7965745D01*
X15638825Y-8165745D02*
X15638825Y-8060983D01*
X15638825Y-8060983D02*
X15629301Y-8041935D01*
X15629301Y-8041935D02*
X15610253Y-8032411D01*
X15610253Y-8032411D02*
X15581682Y-8032411D01*
X15581682Y-8032411D02*
X15562634Y-8041935D01*
X15562634Y-8041935D02*
X15553110Y-8051459D01*
X15762634Y-8165745D02*
X15743587Y-8156221D01*
X15743587Y-8156221D02*
X15734063Y-8146697D01*
X15734063Y-8146697D02*
X15724539Y-8127649D01*
X15724539Y-8127649D02*
X15724539Y-8070507D01*
X15724539Y-8070507D02*
X15734063Y-8051459D01*
X15734063Y-8051459D02*
X15743587Y-8041935D01*
X15743587Y-8041935D02*
X15762634Y-8032411D01*
X15762634Y-8032411D02*
X15791206Y-8032411D01*
X15791206Y-8032411D02*
X15810253Y-8041935D01*
X15810253Y-8041935D02*
X15819777Y-8051459D01*
X15819777Y-8051459D02*
X15829301Y-8070507D01*
X15829301Y-8070507D02*
X15829301Y-8127649D01*
X15829301Y-8127649D02*
X15819777Y-8146697D01*
X15819777Y-8146697D02*
X15810253Y-8156221D01*
X15810253Y-8156221D02*
X15791206Y-8165745D01*
X15791206Y-8165745D02*
X15762634Y-8165745D01*
X15943587Y-8165745D02*
X15924539Y-8156221D01*
X15924539Y-8156221D02*
X15915015Y-8137173D01*
X15915015Y-8137173D02*
X15915015Y-7965745D01*
X16095968Y-8156221D02*
X16076920Y-8165745D01*
X16076920Y-8165745D02*
X16038825Y-8165745D01*
X16038825Y-8165745D02*
X16019777Y-8156221D01*
X16019777Y-8156221D02*
X16010253Y-8137173D01*
X16010253Y-8137173D02*
X16010253Y-8060983D01*
X16010253Y-8060983D02*
X16019777Y-8041935D01*
X16019777Y-8041935D02*
X16038825Y-8032411D01*
X16038825Y-8032411D02*
X16076920Y-8032411D01*
X16076920Y-8032411D02*
X16095968Y-8041935D01*
X16095968Y-8041935D02*
X16105491Y-8060983D01*
X16105491Y-8060983D02*
X16105491Y-8080030D01*
X16105491Y-8080030D02*
X16010253Y-8099078D01*
X16181682Y-8156221D02*
X16200730Y-8165745D01*
X16200730Y-8165745D02*
X16238825Y-8165745D01*
X16238825Y-8165745D02*
X16257872Y-8156221D01*
X16257872Y-8156221D02*
X16267396Y-8137173D01*
X16267396Y-8137173D02*
X16267396Y-8127649D01*
X16267396Y-8127649D02*
X16257872Y-8108602D01*
X16257872Y-8108602D02*
X16238825Y-8099078D01*
X16238825Y-8099078D02*
X16210253Y-8099078D01*
X16210253Y-8099078D02*
X16191206Y-8089554D01*
X16191206Y-8089554D02*
X16181682Y-8070507D01*
X16181682Y-8070507D02*
X16181682Y-8060983D01*
X16181682Y-8060983D02*
X16191206Y-8041935D01*
X16191206Y-8041935D02*
X16210253Y-8032411D01*
X16210253Y-8032411D02*
X16238825Y-8032411D01*
X16238825Y-8032411D02*
X16257872Y-8041935D01*
X16334063Y-8241935D02*
X16343587Y-8232411D01*
X16343587Y-8232411D02*
X16362634Y-8203840D01*
X16362634Y-8203840D02*
X16372158Y-8184792D01*
X16372158Y-8184792D02*
X16381682Y-8156221D01*
X16381682Y-8156221D02*
X16391206Y-8108602D01*
X16391206Y-8108602D02*
X16391206Y-8070507D01*
X16391206Y-8070507D02*
X16381682Y-8022887D01*
X16381682Y-8022887D02*
X16372158Y-7994316D01*
X16372158Y-7994316D02*
X16362634Y-7975268D01*
X16362634Y-7975268D02*
X16343587Y-7946697D01*
X16343587Y-7946697D02*
X16334063Y-7937173D01*
D11*
X11559000Y-8338261D02*
G75*
G02*
X11479000Y-8338261I-40000J0D01*
G01*
X11479000Y-8338261D02*
G75*
G02*
X11559000Y-8338261I40000J0D01*
G01*
D10*
X11857872Y-8229745D02*
X11876920Y-8229745D01*
X11876920Y-8229745D02*
X11895967Y-8239268D01*
X11895967Y-8239268D02*
X11905491Y-8248792D01*
X11905491Y-8248792D02*
X11915015Y-8267840D01*
X11915015Y-8267840D02*
X11924539Y-8305935D01*
X11924539Y-8305935D02*
X11924539Y-8353554D01*
X11924539Y-8353554D02*
X11915015Y-8391649D01*
X11915015Y-8391649D02*
X11905491Y-8410697D01*
X11905491Y-8410697D02*
X11895967Y-8420221D01*
X11895967Y-8420221D02*
X11876920Y-8429745D01*
X11876920Y-8429745D02*
X11857872Y-8429745D01*
X11857872Y-8429745D02*
X11838824Y-8420221D01*
X11838824Y-8420221D02*
X11829301Y-8410697D01*
X11829301Y-8410697D02*
X11819777Y-8391649D01*
X11819777Y-8391649D02*
X11810253Y-8353554D01*
X11810253Y-8353554D02*
X11810253Y-8305935D01*
X11810253Y-8305935D02*
X11819777Y-8267840D01*
X11819777Y-8267840D02*
X11829301Y-8248792D01*
X11829301Y-8248792D02*
X11838824Y-8239268D01*
X11838824Y-8239268D02*
X11857872Y-8229745D01*
X12010253Y-8410697D02*
X12019777Y-8420221D01*
X12019777Y-8420221D02*
X12010253Y-8429745D01*
X12010253Y-8429745D02*
X12000729Y-8420221D01*
X12000729Y-8420221D02*
X12010253Y-8410697D01*
X12010253Y-8410697D02*
X12010253Y-8429745D01*
X12134062Y-8315459D02*
X12115015Y-8305935D01*
X12115015Y-8305935D02*
X12105491Y-8296411D01*
X12105491Y-8296411D02*
X12095967Y-8277364D01*
X12095967Y-8277364D02*
X12095967Y-8267840D01*
X12095967Y-8267840D02*
X12105491Y-8248792D01*
X12105491Y-8248792D02*
X12115015Y-8239268D01*
X12115015Y-8239268D02*
X12134062Y-8229745D01*
X12134062Y-8229745D02*
X12172158Y-8229745D01*
X12172158Y-8229745D02*
X12191205Y-8239268D01*
X12191205Y-8239268D02*
X12200729Y-8248792D01*
X12200729Y-8248792D02*
X12210253Y-8267840D01*
X12210253Y-8267840D02*
X12210253Y-8277364D01*
X12210253Y-8277364D02*
X12200729Y-8296411D01*
X12200729Y-8296411D02*
X12191205Y-8305935D01*
X12191205Y-8305935D02*
X12172158Y-8315459D01*
X12172158Y-8315459D02*
X12134062Y-8315459D01*
X12134062Y-8315459D02*
X12115015Y-8324983D01*
X12115015Y-8324983D02*
X12105491Y-8334507D01*
X12105491Y-8334507D02*
X12095967Y-8353554D01*
X12095967Y-8353554D02*
X12095967Y-8391649D01*
X12095967Y-8391649D02*
X12105491Y-8410697D01*
X12105491Y-8410697D02*
X12115015Y-8420221D01*
X12115015Y-8420221D02*
X12134062Y-8429745D01*
X12134062Y-8429745D02*
X12172158Y-8429745D01*
X12172158Y-8429745D02*
X12191205Y-8420221D01*
X12191205Y-8420221D02*
X12200729Y-8410697D01*
X12200729Y-8410697D02*
X12210253Y-8391649D01*
X12210253Y-8391649D02*
X12210253Y-8353554D01*
X12210253Y-8353554D02*
X12200729Y-8334507D01*
X12200729Y-8334507D02*
X12191205Y-8324983D01*
X12191205Y-8324983D02*
X12172158Y-8315459D01*
X12334062Y-8229745D02*
X12353110Y-8229745D01*
X12353110Y-8229745D02*
X12372158Y-8239268D01*
X12372158Y-8239268D02*
X12381682Y-8248792D01*
X12381682Y-8248792D02*
X12391205Y-8267840D01*
X12391205Y-8267840D02*
X12400729Y-8305935D01*
X12400729Y-8305935D02*
X12400729Y-8353554D01*
X12400729Y-8353554D02*
X12391205Y-8391649D01*
X12391205Y-8391649D02*
X12381682Y-8410697D01*
X12381682Y-8410697D02*
X12372158Y-8420221D01*
X12372158Y-8420221D02*
X12353110Y-8429745D01*
X12353110Y-8429745D02*
X12334062Y-8429745D01*
X12334062Y-8429745D02*
X12315015Y-8420221D01*
X12315015Y-8420221D02*
X12305491Y-8410697D01*
X12305491Y-8410697D02*
X12295967Y-8391649D01*
X12295967Y-8391649D02*
X12286443Y-8353554D01*
X12286443Y-8353554D02*
X12286443Y-8305935D01*
X12286443Y-8305935D02*
X12295967Y-8267840D01*
X12295967Y-8267840D02*
X12305491Y-8248792D01*
X12305491Y-8248792D02*
X12315015Y-8239268D01*
X12315015Y-8239268D02*
X12334062Y-8229745D01*
X12524539Y-8229745D02*
X12543586Y-8229745D01*
X12543586Y-8229745D02*
X12562634Y-8239268D01*
X12562634Y-8239268D02*
X12572158Y-8248792D01*
X12572158Y-8248792D02*
X12581682Y-8267840D01*
X12581682Y-8267840D02*
X12591205Y-8305935D01*
X12591205Y-8305935D02*
X12591205Y-8353554D01*
X12591205Y-8353554D02*
X12581682Y-8391649D01*
X12581682Y-8391649D02*
X12572158Y-8410697D01*
X12572158Y-8410697D02*
X12562634Y-8420221D01*
X12562634Y-8420221D02*
X12543586Y-8429745D01*
X12543586Y-8429745D02*
X12524539Y-8429745D01*
X12524539Y-8429745D02*
X12505491Y-8420221D01*
X12505491Y-8420221D02*
X12495967Y-8410697D01*
X12495967Y-8410697D02*
X12486443Y-8391649D01*
X12486443Y-8391649D02*
X12476920Y-8353554D01*
X12476920Y-8353554D02*
X12476920Y-8305935D01*
X12476920Y-8305935D02*
X12486443Y-8267840D01*
X12486443Y-8267840D02*
X12495967Y-8248792D01*
X12495967Y-8248792D02*
X12505491Y-8239268D01*
X12505491Y-8239268D02*
X12524539Y-8229745D01*
X12676920Y-8429745D02*
X12676920Y-8296411D01*
X12676920Y-8315459D02*
X12686443Y-8305935D01*
X12686443Y-8305935D02*
X12705491Y-8296411D01*
X12705491Y-8296411D02*
X12734063Y-8296411D01*
X12734063Y-8296411D02*
X12753110Y-8305935D01*
X12753110Y-8305935D02*
X12762634Y-8324983D01*
X12762634Y-8324983D02*
X12762634Y-8429745D01*
X12762634Y-8324983D02*
X12772158Y-8305935D01*
X12772158Y-8305935D02*
X12791205Y-8296411D01*
X12791205Y-8296411D02*
X12819777Y-8296411D01*
X12819777Y-8296411D02*
X12838824Y-8305935D01*
X12838824Y-8305935D02*
X12848348Y-8324983D01*
X12848348Y-8324983D02*
X12848348Y-8429745D01*
X12943586Y-8429745D02*
X12943586Y-8296411D01*
X12943586Y-8315459D02*
X12953110Y-8305935D01*
X12953110Y-8305935D02*
X12972158Y-8296411D01*
X12972158Y-8296411D02*
X13000729Y-8296411D01*
X13000729Y-8296411D02*
X13019777Y-8305935D01*
X13019777Y-8305935D02*
X13029301Y-8324983D01*
X13029301Y-8324983D02*
X13029301Y-8429745D01*
X13029301Y-8324983D02*
X13038824Y-8305935D01*
X13038824Y-8305935D02*
X13057872Y-8296411D01*
X13057872Y-8296411D02*
X13086443Y-8296411D01*
X13086443Y-8296411D02*
X13105491Y-8305935D01*
X13105491Y-8305935D02*
X13115015Y-8324983D01*
X13115015Y-8324983D02*
X13115015Y-8429745D01*
X13505491Y-8220221D02*
X13334063Y-8477364D01*
X13762634Y-8229745D02*
X13781682Y-8229745D01*
X13781682Y-8229745D02*
X13800729Y-8239268D01*
X13800729Y-8239268D02*
X13810253Y-8248792D01*
X13810253Y-8248792D02*
X13819777Y-8267840D01*
X13819777Y-8267840D02*
X13829301Y-8305935D01*
X13829301Y-8305935D02*
X13829301Y-8353554D01*
X13829301Y-8353554D02*
X13819777Y-8391649D01*
X13819777Y-8391649D02*
X13810253Y-8410697D01*
X13810253Y-8410697D02*
X13800729Y-8420221D01*
X13800729Y-8420221D02*
X13781682Y-8429745D01*
X13781682Y-8429745D02*
X13762634Y-8429745D01*
X13762634Y-8429745D02*
X13743586Y-8420221D01*
X13743586Y-8420221D02*
X13734063Y-8410697D01*
X13734063Y-8410697D02*
X13724539Y-8391649D01*
X13724539Y-8391649D02*
X13715015Y-8353554D01*
X13715015Y-8353554D02*
X13715015Y-8305935D01*
X13715015Y-8305935D02*
X13724539Y-8267840D01*
X13724539Y-8267840D02*
X13734063Y-8248792D01*
X13734063Y-8248792D02*
X13743586Y-8239268D01*
X13743586Y-8239268D02*
X13762634Y-8229745D01*
X13915015Y-8410697D02*
X13924539Y-8420221D01*
X13924539Y-8420221D02*
X13915015Y-8429745D01*
X13915015Y-8429745D02*
X13905491Y-8420221D01*
X13905491Y-8420221D02*
X13915015Y-8410697D01*
X13915015Y-8410697D02*
X13915015Y-8429745D01*
X14048348Y-8229745D02*
X14067396Y-8229745D01*
X14067396Y-8229745D02*
X14086444Y-8239268D01*
X14086444Y-8239268D02*
X14095967Y-8248792D01*
X14095967Y-8248792D02*
X14105491Y-8267840D01*
X14105491Y-8267840D02*
X14115015Y-8305935D01*
X14115015Y-8305935D02*
X14115015Y-8353554D01*
X14115015Y-8353554D02*
X14105491Y-8391649D01*
X14105491Y-8391649D02*
X14095967Y-8410697D01*
X14095967Y-8410697D02*
X14086444Y-8420221D01*
X14086444Y-8420221D02*
X14067396Y-8429745D01*
X14067396Y-8429745D02*
X14048348Y-8429745D01*
X14048348Y-8429745D02*
X14029301Y-8420221D01*
X14029301Y-8420221D02*
X14019777Y-8410697D01*
X14019777Y-8410697D02*
X14010253Y-8391649D01*
X14010253Y-8391649D02*
X14000729Y-8353554D01*
X14000729Y-8353554D02*
X14000729Y-8305935D01*
X14000729Y-8305935D02*
X14010253Y-8267840D01*
X14010253Y-8267840D02*
X14019777Y-8248792D01*
X14019777Y-8248792D02*
X14029301Y-8239268D01*
X14029301Y-8239268D02*
X14048348Y-8229745D01*
X14181682Y-8229745D02*
X14305491Y-8229745D01*
X14305491Y-8229745D02*
X14238825Y-8305935D01*
X14238825Y-8305935D02*
X14267396Y-8305935D01*
X14267396Y-8305935D02*
X14286444Y-8315459D01*
X14286444Y-8315459D02*
X14295967Y-8324983D01*
X14295967Y-8324983D02*
X14305491Y-8344030D01*
X14305491Y-8344030D02*
X14305491Y-8391649D01*
X14305491Y-8391649D02*
X14295967Y-8410697D01*
X14295967Y-8410697D02*
X14286444Y-8420221D01*
X14286444Y-8420221D02*
X14267396Y-8429745D01*
X14267396Y-8429745D02*
X14210253Y-8429745D01*
X14210253Y-8429745D02*
X14191206Y-8420221D01*
X14191206Y-8420221D02*
X14181682Y-8410697D01*
X14495967Y-8429745D02*
X14381682Y-8429745D01*
X14438825Y-8429745D02*
X14438825Y-8229745D01*
X14438825Y-8229745D02*
X14419777Y-8258316D01*
X14419777Y-8258316D02*
X14400729Y-8277364D01*
X14400729Y-8277364D02*
X14381682Y-8286887D01*
X14676920Y-8229745D02*
X14581682Y-8229745D01*
X14581682Y-8229745D02*
X14572158Y-8324983D01*
X14572158Y-8324983D02*
X14581682Y-8315459D01*
X14581682Y-8315459D02*
X14600729Y-8305935D01*
X14600729Y-8305935D02*
X14648348Y-8305935D01*
X14648348Y-8305935D02*
X14667396Y-8315459D01*
X14667396Y-8315459D02*
X14676920Y-8324983D01*
X14676920Y-8324983D02*
X14686444Y-8344030D01*
X14686444Y-8344030D02*
X14686444Y-8391649D01*
X14686444Y-8391649D02*
X14676920Y-8410697D01*
X14676920Y-8410697D02*
X14667396Y-8420221D01*
X14667396Y-8420221D02*
X14648348Y-8429745D01*
X14648348Y-8429745D02*
X14600729Y-8429745D01*
X14600729Y-8429745D02*
X14581682Y-8420221D01*
X14581682Y-8420221D02*
X14572158Y-8410697D01*
X14762634Y-8229745D02*
X14762634Y-8267840D01*
X14838825Y-8229745D02*
X14838825Y-8267840D01*
X15134063Y-8505935D02*
X15124539Y-8496411D01*
X15124539Y-8496411D02*
X15105491Y-8467840D01*
X15105491Y-8467840D02*
X15095968Y-8448792D01*
X15095968Y-8448792D02*
X15086444Y-8420221D01*
X15086444Y-8420221D02*
X15076920Y-8372602D01*
X15076920Y-8372602D02*
X15076920Y-8334507D01*
X15076920Y-8334507D02*
X15086444Y-8286887D01*
X15086444Y-8286887D02*
X15095968Y-8258316D01*
X15095968Y-8258316D02*
X15105491Y-8239268D01*
X15105491Y-8239268D02*
X15124539Y-8210697D01*
X15124539Y-8210697D02*
X15134063Y-8201173D01*
X15238825Y-8315459D02*
X15219777Y-8305935D01*
X15219777Y-8305935D02*
X15210253Y-8296411D01*
X15210253Y-8296411D02*
X15200729Y-8277364D01*
X15200729Y-8277364D02*
X15200729Y-8267840D01*
X15200729Y-8267840D02*
X15210253Y-8248792D01*
X15210253Y-8248792D02*
X15219777Y-8239268D01*
X15219777Y-8239268D02*
X15238825Y-8229745D01*
X15238825Y-8229745D02*
X15276920Y-8229745D01*
X15276920Y-8229745D02*
X15295968Y-8239268D01*
X15295968Y-8239268D02*
X15305491Y-8248792D01*
X15305491Y-8248792D02*
X15315015Y-8267840D01*
X15315015Y-8267840D02*
X15315015Y-8277364D01*
X15315015Y-8277364D02*
X15305491Y-8296411D01*
X15305491Y-8296411D02*
X15295968Y-8305935D01*
X15295968Y-8305935D02*
X15276920Y-8315459D01*
X15276920Y-8315459D02*
X15238825Y-8315459D01*
X15238825Y-8315459D02*
X15219777Y-8324983D01*
X15219777Y-8324983D02*
X15210253Y-8334507D01*
X15210253Y-8334507D02*
X15200729Y-8353554D01*
X15200729Y-8353554D02*
X15200729Y-8391649D01*
X15200729Y-8391649D02*
X15210253Y-8410697D01*
X15210253Y-8410697D02*
X15219777Y-8420221D01*
X15219777Y-8420221D02*
X15238825Y-8429745D01*
X15238825Y-8429745D02*
X15276920Y-8429745D01*
X15276920Y-8429745D02*
X15295968Y-8420221D01*
X15295968Y-8420221D02*
X15305491Y-8410697D01*
X15305491Y-8410697D02*
X15315015Y-8391649D01*
X15315015Y-8391649D02*
X15315015Y-8353554D01*
X15315015Y-8353554D02*
X15305491Y-8334507D01*
X15305491Y-8334507D02*
X15295968Y-8324983D01*
X15295968Y-8324983D02*
X15276920Y-8315459D01*
X15553110Y-8429745D02*
X15553110Y-8229745D01*
X15638825Y-8429745D02*
X15638825Y-8324983D01*
X15638825Y-8324983D02*
X15629301Y-8305935D01*
X15629301Y-8305935D02*
X15610253Y-8296411D01*
X15610253Y-8296411D02*
X15581682Y-8296411D01*
X15581682Y-8296411D02*
X15562634Y-8305935D01*
X15562634Y-8305935D02*
X15553110Y-8315459D01*
X15762634Y-8429745D02*
X15743587Y-8420221D01*
X15743587Y-8420221D02*
X15734063Y-8410697D01*
X15734063Y-8410697D02*
X15724539Y-8391649D01*
X15724539Y-8391649D02*
X15724539Y-8334507D01*
X15724539Y-8334507D02*
X15734063Y-8315459D01*
X15734063Y-8315459D02*
X15743587Y-8305935D01*
X15743587Y-8305935D02*
X15762634Y-8296411D01*
X15762634Y-8296411D02*
X15791206Y-8296411D01*
X15791206Y-8296411D02*
X15810253Y-8305935D01*
X15810253Y-8305935D02*
X15819777Y-8315459D01*
X15819777Y-8315459D02*
X15829301Y-8334507D01*
X15829301Y-8334507D02*
X15829301Y-8391649D01*
X15829301Y-8391649D02*
X15819777Y-8410697D01*
X15819777Y-8410697D02*
X15810253Y-8420221D01*
X15810253Y-8420221D02*
X15791206Y-8429745D01*
X15791206Y-8429745D02*
X15762634Y-8429745D01*
X15943587Y-8429745D02*
X15924539Y-8420221D01*
X15924539Y-8420221D02*
X15915015Y-8401173D01*
X15915015Y-8401173D02*
X15915015Y-8229745D01*
X16095968Y-8420221D02*
X16076920Y-8429745D01*
X16076920Y-8429745D02*
X16038825Y-8429745D01*
X16038825Y-8429745D02*
X16019777Y-8420221D01*
X16019777Y-8420221D02*
X16010253Y-8401173D01*
X16010253Y-8401173D02*
X16010253Y-8324983D01*
X16010253Y-8324983D02*
X16019777Y-8305935D01*
X16019777Y-8305935D02*
X16038825Y-8296411D01*
X16038825Y-8296411D02*
X16076920Y-8296411D01*
X16076920Y-8296411D02*
X16095968Y-8305935D01*
X16095968Y-8305935D02*
X16105491Y-8324983D01*
X16105491Y-8324983D02*
X16105491Y-8344030D01*
X16105491Y-8344030D02*
X16010253Y-8363078D01*
X16181682Y-8420221D02*
X16200730Y-8429745D01*
X16200730Y-8429745D02*
X16238825Y-8429745D01*
X16238825Y-8429745D02*
X16257872Y-8420221D01*
X16257872Y-8420221D02*
X16267396Y-8401173D01*
X16267396Y-8401173D02*
X16267396Y-8391649D01*
X16267396Y-8391649D02*
X16257872Y-8372602D01*
X16257872Y-8372602D02*
X16238825Y-8363078D01*
X16238825Y-8363078D02*
X16210253Y-8363078D01*
X16210253Y-8363078D02*
X16191206Y-8353554D01*
X16191206Y-8353554D02*
X16181682Y-8334507D01*
X16181682Y-8334507D02*
X16181682Y-8324983D01*
X16181682Y-8324983D02*
X16191206Y-8305935D01*
X16191206Y-8305935D02*
X16210253Y-8296411D01*
X16210253Y-8296411D02*
X16238825Y-8296411D01*
X16238825Y-8296411D02*
X16257872Y-8305935D01*
X16334063Y-8505935D02*
X16343587Y-8496411D01*
X16343587Y-8496411D02*
X16362634Y-8467840D01*
X16362634Y-8467840D02*
X16372158Y-8448792D01*
X16372158Y-8448792D02*
X16381682Y-8420221D01*
X16381682Y-8420221D02*
X16391206Y-8372602D01*
X16391206Y-8372602D02*
X16391206Y-8334507D01*
X16391206Y-8334507D02*
X16381682Y-8286887D01*
X16381682Y-8286887D02*
X16372158Y-8258316D01*
X16372158Y-8258316D02*
X16362634Y-8239268D01*
X16362634Y-8239268D02*
X16343587Y-8210697D01*
X16343587Y-8210697D02*
X16334063Y-8201173D01*
D12*
X11504000Y-8547261D02*
X11504000Y-8657261D01*
X11449000Y-8602261D02*
X11559000Y-8602261D01*
D10*
X11924539Y-8693745D02*
X11810253Y-8693745D01*
X11867396Y-8693745D02*
X11867396Y-8493745D01*
X11867396Y-8493745D02*
X11848348Y-8522316D01*
X11848348Y-8522316D02*
X11829301Y-8541364D01*
X11829301Y-8541364D02*
X11810253Y-8550888D01*
X12010253Y-8674697D02*
X12019777Y-8684221D01*
X12019777Y-8684221D02*
X12010253Y-8693745D01*
X12010253Y-8693745D02*
X12000729Y-8684221D01*
X12000729Y-8684221D02*
X12010253Y-8674697D01*
X12010253Y-8674697D02*
X12010253Y-8693745D01*
X12210253Y-8693745D02*
X12095967Y-8693745D01*
X12153110Y-8693745D02*
X12153110Y-8493745D01*
X12153110Y-8493745D02*
X12134062Y-8522316D01*
X12134062Y-8522316D02*
X12115015Y-8541364D01*
X12115015Y-8541364D02*
X12095967Y-8550888D01*
X12334062Y-8493745D02*
X12353110Y-8493745D01*
X12353110Y-8493745D02*
X12372158Y-8503269D01*
X12372158Y-8503269D02*
X12381682Y-8512792D01*
X12381682Y-8512792D02*
X12391205Y-8531840D01*
X12391205Y-8531840D02*
X12400729Y-8569935D01*
X12400729Y-8569935D02*
X12400729Y-8617554D01*
X12400729Y-8617554D02*
X12391205Y-8655649D01*
X12391205Y-8655649D02*
X12381682Y-8674697D01*
X12381682Y-8674697D02*
X12372158Y-8684221D01*
X12372158Y-8684221D02*
X12353110Y-8693745D01*
X12353110Y-8693745D02*
X12334062Y-8693745D01*
X12334062Y-8693745D02*
X12315015Y-8684221D01*
X12315015Y-8684221D02*
X12305491Y-8674697D01*
X12305491Y-8674697D02*
X12295967Y-8655649D01*
X12295967Y-8655649D02*
X12286443Y-8617554D01*
X12286443Y-8617554D02*
X12286443Y-8569935D01*
X12286443Y-8569935D02*
X12295967Y-8531840D01*
X12295967Y-8531840D02*
X12305491Y-8512792D01*
X12305491Y-8512792D02*
X12315015Y-8503269D01*
X12315015Y-8503269D02*
X12334062Y-8493745D01*
X12524539Y-8493745D02*
X12543586Y-8493745D01*
X12543586Y-8493745D02*
X12562634Y-8503269D01*
X12562634Y-8503269D02*
X12572158Y-8512792D01*
X12572158Y-8512792D02*
X12581682Y-8531840D01*
X12581682Y-8531840D02*
X12591205Y-8569935D01*
X12591205Y-8569935D02*
X12591205Y-8617554D01*
X12591205Y-8617554D02*
X12581682Y-8655649D01*
X12581682Y-8655649D02*
X12572158Y-8674697D01*
X12572158Y-8674697D02*
X12562634Y-8684221D01*
X12562634Y-8684221D02*
X12543586Y-8693745D01*
X12543586Y-8693745D02*
X12524539Y-8693745D01*
X12524539Y-8693745D02*
X12505491Y-8684221D01*
X12505491Y-8684221D02*
X12495967Y-8674697D01*
X12495967Y-8674697D02*
X12486443Y-8655649D01*
X12486443Y-8655649D02*
X12476920Y-8617554D01*
X12476920Y-8617554D02*
X12476920Y-8569935D01*
X12476920Y-8569935D02*
X12486443Y-8531840D01*
X12486443Y-8531840D02*
X12495967Y-8512792D01*
X12495967Y-8512792D02*
X12505491Y-8503269D01*
X12505491Y-8503269D02*
X12524539Y-8493745D01*
X12676920Y-8693745D02*
X12676920Y-8560411D01*
X12676920Y-8579459D02*
X12686443Y-8569935D01*
X12686443Y-8569935D02*
X12705491Y-8560411D01*
X12705491Y-8560411D02*
X12734063Y-8560411D01*
X12734063Y-8560411D02*
X12753110Y-8569935D01*
X12753110Y-8569935D02*
X12762634Y-8588983D01*
X12762634Y-8588983D02*
X12762634Y-8693745D01*
X12762634Y-8588983D02*
X12772158Y-8569935D01*
X12772158Y-8569935D02*
X12791205Y-8560411D01*
X12791205Y-8560411D02*
X12819777Y-8560411D01*
X12819777Y-8560411D02*
X12838824Y-8569935D01*
X12838824Y-8569935D02*
X12848348Y-8588983D01*
X12848348Y-8588983D02*
X12848348Y-8693745D01*
X12943586Y-8693745D02*
X12943586Y-8560411D01*
X12943586Y-8579459D02*
X12953110Y-8569935D01*
X12953110Y-8569935D02*
X12972158Y-8560411D01*
X12972158Y-8560411D02*
X13000729Y-8560411D01*
X13000729Y-8560411D02*
X13019777Y-8569935D01*
X13019777Y-8569935D02*
X13029301Y-8588983D01*
X13029301Y-8588983D02*
X13029301Y-8693745D01*
X13029301Y-8588983D02*
X13038824Y-8569935D01*
X13038824Y-8569935D02*
X13057872Y-8560411D01*
X13057872Y-8560411D02*
X13086443Y-8560411D01*
X13086443Y-8560411D02*
X13105491Y-8569935D01*
X13105491Y-8569935D02*
X13115015Y-8588983D01*
X13115015Y-8588983D02*
X13115015Y-8693745D01*
X13505491Y-8484221D02*
X13334063Y-8741364D01*
X13762634Y-8493745D02*
X13781682Y-8493745D01*
X13781682Y-8493745D02*
X13800729Y-8503269D01*
X13800729Y-8503269D02*
X13810253Y-8512792D01*
X13810253Y-8512792D02*
X13819777Y-8531840D01*
X13819777Y-8531840D02*
X13829301Y-8569935D01*
X13829301Y-8569935D02*
X13829301Y-8617554D01*
X13829301Y-8617554D02*
X13819777Y-8655649D01*
X13819777Y-8655649D02*
X13810253Y-8674697D01*
X13810253Y-8674697D02*
X13800729Y-8684221D01*
X13800729Y-8684221D02*
X13781682Y-8693745D01*
X13781682Y-8693745D02*
X13762634Y-8693745D01*
X13762634Y-8693745D02*
X13743586Y-8684221D01*
X13743586Y-8684221D02*
X13734063Y-8674697D01*
X13734063Y-8674697D02*
X13724539Y-8655649D01*
X13724539Y-8655649D02*
X13715015Y-8617554D01*
X13715015Y-8617554D02*
X13715015Y-8569935D01*
X13715015Y-8569935D02*
X13724539Y-8531840D01*
X13724539Y-8531840D02*
X13734063Y-8512792D01*
X13734063Y-8512792D02*
X13743586Y-8503269D01*
X13743586Y-8503269D02*
X13762634Y-8493745D01*
X13915015Y-8674697D02*
X13924539Y-8684221D01*
X13924539Y-8684221D02*
X13915015Y-8693745D01*
X13915015Y-8693745D02*
X13905491Y-8684221D01*
X13905491Y-8684221D02*
X13915015Y-8674697D01*
X13915015Y-8674697D02*
X13915015Y-8693745D01*
X14048348Y-8493745D02*
X14067396Y-8493745D01*
X14067396Y-8493745D02*
X14086444Y-8503269D01*
X14086444Y-8503269D02*
X14095967Y-8512792D01*
X14095967Y-8512792D02*
X14105491Y-8531840D01*
X14105491Y-8531840D02*
X14115015Y-8569935D01*
X14115015Y-8569935D02*
X14115015Y-8617554D01*
X14115015Y-8617554D02*
X14105491Y-8655649D01*
X14105491Y-8655649D02*
X14095967Y-8674697D01*
X14095967Y-8674697D02*
X14086444Y-8684221D01*
X14086444Y-8684221D02*
X14067396Y-8693745D01*
X14067396Y-8693745D02*
X14048348Y-8693745D01*
X14048348Y-8693745D02*
X14029301Y-8684221D01*
X14029301Y-8684221D02*
X14019777Y-8674697D01*
X14019777Y-8674697D02*
X14010253Y-8655649D01*
X14010253Y-8655649D02*
X14000729Y-8617554D01*
X14000729Y-8617554D02*
X14000729Y-8569935D01*
X14000729Y-8569935D02*
X14010253Y-8531840D01*
X14010253Y-8531840D02*
X14019777Y-8512792D01*
X14019777Y-8512792D02*
X14029301Y-8503269D01*
X14029301Y-8503269D02*
X14048348Y-8493745D01*
X14286444Y-8560411D02*
X14286444Y-8693745D01*
X14238825Y-8484221D02*
X14191206Y-8627078D01*
X14191206Y-8627078D02*
X14315015Y-8627078D01*
X14372158Y-8493745D02*
X14495967Y-8493745D01*
X14495967Y-8493745D02*
X14429301Y-8569935D01*
X14429301Y-8569935D02*
X14457872Y-8569935D01*
X14457872Y-8569935D02*
X14476920Y-8579459D01*
X14476920Y-8579459D02*
X14486444Y-8588983D01*
X14486444Y-8588983D02*
X14495967Y-8608030D01*
X14495967Y-8608030D02*
X14495967Y-8655649D01*
X14495967Y-8655649D02*
X14486444Y-8674697D01*
X14486444Y-8674697D02*
X14476920Y-8684221D01*
X14476920Y-8684221D02*
X14457872Y-8693745D01*
X14457872Y-8693745D02*
X14400729Y-8693745D01*
X14400729Y-8693745D02*
X14381682Y-8684221D01*
X14381682Y-8684221D02*
X14372158Y-8674697D01*
X14562634Y-8493745D02*
X14686444Y-8493745D01*
X14686444Y-8493745D02*
X14619777Y-8569935D01*
X14619777Y-8569935D02*
X14648348Y-8569935D01*
X14648348Y-8569935D02*
X14667396Y-8579459D01*
X14667396Y-8579459D02*
X14676920Y-8588983D01*
X14676920Y-8588983D02*
X14686444Y-8608030D01*
X14686444Y-8608030D02*
X14686444Y-8655649D01*
X14686444Y-8655649D02*
X14676920Y-8674697D01*
X14676920Y-8674697D02*
X14667396Y-8684221D01*
X14667396Y-8684221D02*
X14648348Y-8693745D01*
X14648348Y-8693745D02*
X14591206Y-8693745D01*
X14591206Y-8693745D02*
X14572158Y-8684221D01*
X14572158Y-8684221D02*
X14562634Y-8674697D01*
X14762634Y-8493745D02*
X14762634Y-8531840D01*
X14838825Y-8493745D02*
X14838825Y-8531840D01*
X15134063Y-8769935D02*
X15124539Y-8760411D01*
X15124539Y-8760411D02*
X15105491Y-8731840D01*
X15105491Y-8731840D02*
X15095968Y-8712792D01*
X15095968Y-8712792D02*
X15086444Y-8684221D01*
X15086444Y-8684221D02*
X15076920Y-8636602D01*
X15076920Y-8636602D02*
X15076920Y-8598507D01*
X15076920Y-8598507D02*
X15086444Y-8550888D01*
X15086444Y-8550888D02*
X15095968Y-8522316D01*
X15095968Y-8522316D02*
X15105491Y-8503269D01*
X15105491Y-8503269D02*
X15124539Y-8474697D01*
X15124539Y-8474697D02*
X15134063Y-8465173D01*
X15295968Y-8493745D02*
X15257872Y-8493745D01*
X15257872Y-8493745D02*
X15238825Y-8503269D01*
X15238825Y-8503269D02*
X15229301Y-8512792D01*
X15229301Y-8512792D02*
X15210253Y-8541364D01*
X15210253Y-8541364D02*
X15200729Y-8579459D01*
X15200729Y-8579459D02*
X15200729Y-8655649D01*
X15200729Y-8655649D02*
X15210253Y-8674697D01*
X15210253Y-8674697D02*
X15219777Y-8684221D01*
X15219777Y-8684221D02*
X15238825Y-8693745D01*
X15238825Y-8693745D02*
X15276920Y-8693745D01*
X15276920Y-8693745D02*
X15295968Y-8684221D01*
X15295968Y-8684221D02*
X15305491Y-8674697D01*
X15305491Y-8674697D02*
X15315015Y-8655649D01*
X15315015Y-8655649D02*
X15315015Y-8608030D01*
X15315015Y-8608030D02*
X15305491Y-8588983D01*
X15305491Y-8588983D02*
X15295968Y-8579459D01*
X15295968Y-8579459D02*
X15276920Y-8569935D01*
X15276920Y-8569935D02*
X15238825Y-8569935D01*
X15238825Y-8569935D02*
X15219777Y-8579459D01*
X15219777Y-8579459D02*
X15210253Y-8588983D01*
X15210253Y-8588983D02*
X15200729Y-8608030D01*
X15553110Y-8693745D02*
X15553110Y-8493745D01*
X15638825Y-8693745D02*
X15638825Y-8588983D01*
X15638825Y-8588983D02*
X15629301Y-8569935D01*
X15629301Y-8569935D02*
X15610253Y-8560411D01*
X15610253Y-8560411D02*
X15581682Y-8560411D01*
X15581682Y-8560411D02*
X15562634Y-8569935D01*
X15562634Y-8569935D02*
X15553110Y-8579459D01*
X15762634Y-8693745D02*
X15743587Y-8684221D01*
X15743587Y-8684221D02*
X15734063Y-8674697D01*
X15734063Y-8674697D02*
X15724539Y-8655649D01*
X15724539Y-8655649D02*
X15724539Y-8598507D01*
X15724539Y-8598507D02*
X15734063Y-8579459D01*
X15734063Y-8579459D02*
X15743587Y-8569935D01*
X15743587Y-8569935D02*
X15762634Y-8560411D01*
X15762634Y-8560411D02*
X15791206Y-8560411D01*
X15791206Y-8560411D02*
X15810253Y-8569935D01*
X15810253Y-8569935D02*
X15819777Y-8579459D01*
X15819777Y-8579459D02*
X15829301Y-8598507D01*
X15829301Y-8598507D02*
X15829301Y-8655649D01*
X15829301Y-8655649D02*
X15819777Y-8674697D01*
X15819777Y-8674697D02*
X15810253Y-8684221D01*
X15810253Y-8684221D02*
X15791206Y-8693745D01*
X15791206Y-8693745D02*
X15762634Y-8693745D01*
X15943587Y-8693745D02*
X15924539Y-8684221D01*
X15924539Y-8684221D02*
X15915015Y-8665173D01*
X15915015Y-8665173D02*
X15915015Y-8493745D01*
X16095968Y-8684221D02*
X16076920Y-8693745D01*
X16076920Y-8693745D02*
X16038825Y-8693745D01*
X16038825Y-8693745D02*
X16019777Y-8684221D01*
X16019777Y-8684221D02*
X16010253Y-8665173D01*
X16010253Y-8665173D02*
X16010253Y-8588983D01*
X16010253Y-8588983D02*
X16019777Y-8569935D01*
X16019777Y-8569935D02*
X16038825Y-8560411D01*
X16038825Y-8560411D02*
X16076920Y-8560411D01*
X16076920Y-8560411D02*
X16095968Y-8569935D01*
X16095968Y-8569935D02*
X16105491Y-8588983D01*
X16105491Y-8588983D02*
X16105491Y-8608030D01*
X16105491Y-8608030D02*
X16010253Y-8627078D01*
X16181682Y-8684221D02*
X16200730Y-8693745D01*
X16200730Y-8693745D02*
X16238825Y-8693745D01*
X16238825Y-8693745D02*
X16257872Y-8684221D01*
X16257872Y-8684221D02*
X16267396Y-8665173D01*
X16267396Y-8665173D02*
X16267396Y-8655649D01*
X16267396Y-8655649D02*
X16257872Y-8636602D01*
X16257872Y-8636602D02*
X16238825Y-8627078D01*
X16238825Y-8627078D02*
X16210253Y-8627078D01*
X16210253Y-8627078D02*
X16191206Y-8617554D01*
X16191206Y-8617554D02*
X16181682Y-8598507D01*
X16181682Y-8598507D02*
X16181682Y-8588983D01*
X16181682Y-8588983D02*
X16191206Y-8569935D01*
X16191206Y-8569935D02*
X16210253Y-8560411D01*
X16210253Y-8560411D02*
X16238825Y-8560411D01*
X16238825Y-8560411D02*
X16257872Y-8569935D01*
X16334063Y-8769935D02*
X16343587Y-8760411D01*
X16343587Y-8760411D02*
X16362634Y-8731840D01*
X16362634Y-8731840D02*
X16372158Y-8712792D01*
X16372158Y-8712792D02*
X16381682Y-8684221D01*
X16381682Y-8684221D02*
X16391206Y-8636602D01*
X16391206Y-8636602D02*
X16391206Y-8598507D01*
X16391206Y-8598507D02*
X16381682Y-8550888D01*
X16381682Y-8550888D02*
X16372158Y-8522316D01*
X16372158Y-8522316D02*
X16362634Y-8503269D01*
X16362634Y-8503269D02*
X16343587Y-8474697D01*
X16343587Y-8474697D02*
X16334063Y-8465173D01*
X11529711Y-8936972D02*
X11529711Y-8795550D01*
X11388289Y-8795550D01*
X11388289Y-8936972D01*
X11529711Y-8936972D01*
X11810253Y-8776792D02*
X11819777Y-8767269D01*
X11819777Y-8767269D02*
X11838824Y-8757745D01*
X11838824Y-8757745D02*
X11886443Y-8757745D01*
X11886443Y-8757745D02*
X11905491Y-8767269D01*
X11905491Y-8767269D02*
X11915015Y-8776792D01*
X11915015Y-8776792D02*
X11924539Y-8795840D01*
X11924539Y-8795840D02*
X11924539Y-8814888D01*
X11924539Y-8814888D02*
X11915015Y-8843459D01*
X11915015Y-8843459D02*
X11800729Y-8957745D01*
X11800729Y-8957745D02*
X11924539Y-8957745D01*
X12010253Y-8938697D02*
X12019777Y-8948221D01*
X12019777Y-8948221D02*
X12010253Y-8957745D01*
X12010253Y-8957745D02*
X12000729Y-8948221D01*
X12000729Y-8948221D02*
X12010253Y-8938697D01*
X12010253Y-8938697D02*
X12010253Y-8957745D01*
X12095967Y-8776792D02*
X12105491Y-8767269D01*
X12105491Y-8767269D02*
X12124539Y-8757745D01*
X12124539Y-8757745D02*
X12172158Y-8757745D01*
X12172158Y-8757745D02*
X12191205Y-8767269D01*
X12191205Y-8767269D02*
X12200729Y-8776792D01*
X12200729Y-8776792D02*
X12210253Y-8795840D01*
X12210253Y-8795840D02*
X12210253Y-8814888D01*
X12210253Y-8814888D02*
X12200729Y-8843459D01*
X12200729Y-8843459D02*
X12086443Y-8957745D01*
X12086443Y-8957745D02*
X12210253Y-8957745D01*
X12334062Y-8757745D02*
X12353110Y-8757745D01*
X12353110Y-8757745D02*
X12372158Y-8767269D01*
X12372158Y-8767269D02*
X12381682Y-8776792D01*
X12381682Y-8776792D02*
X12391205Y-8795840D01*
X12391205Y-8795840D02*
X12400729Y-8833935D01*
X12400729Y-8833935D02*
X12400729Y-8881554D01*
X12400729Y-8881554D02*
X12391205Y-8919649D01*
X12391205Y-8919649D02*
X12381682Y-8938697D01*
X12381682Y-8938697D02*
X12372158Y-8948221D01*
X12372158Y-8948221D02*
X12353110Y-8957745D01*
X12353110Y-8957745D02*
X12334062Y-8957745D01*
X12334062Y-8957745D02*
X12315015Y-8948221D01*
X12315015Y-8948221D02*
X12305491Y-8938697D01*
X12305491Y-8938697D02*
X12295967Y-8919649D01*
X12295967Y-8919649D02*
X12286443Y-8881554D01*
X12286443Y-8881554D02*
X12286443Y-8833935D01*
X12286443Y-8833935D02*
X12295967Y-8795840D01*
X12295967Y-8795840D02*
X12305491Y-8776792D01*
X12305491Y-8776792D02*
X12315015Y-8767269D01*
X12315015Y-8767269D02*
X12334062Y-8757745D01*
X12524539Y-8757745D02*
X12543586Y-8757745D01*
X12543586Y-8757745D02*
X12562634Y-8767269D01*
X12562634Y-8767269D02*
X12572158Y-8776792D01*
X12572158Y-8776792D02*
X12581682Y-8795840D01*
X12581682Y-8795840D02*
X12591205Y-8833935D01*
X12591205Y-8833935D02*
X12591205Y-8881554D01*
X12591205Y-8881554D02*
X12581682Y-8919649D01*
X12581682Y-8919649D02*
X12572158Y-8938697D01*
X12572158Y-8938697D02*
X12562634Y-8948221D01*
X12562634Y-8948221D02*
X12543586Y-8957745D01*
X12543586Y-8957745D02*
X12524539Y-8957745D01*
X12524539Y-8957745D02*
X12505491Y-8948221D01*
X12505491Y-8948221D02*
X12495967Y-8938697D01*
X12495967Y-8938697D02*
X12486443Y-8919649D01*
X12486443Y-8919649D02*
X12476920Y-8881554D01*
X12476920Y-8881554D02*
X12476920Y-8833935D01*
X12476920Y-8833935D02*
X12486443Y-8795840D01*
X12486443Y-8795840D02*
X12495967Y-8776792D01*
X12495967Y-8776792D02*
X12505491Y-8767269D01*
X12505491Y-8767269D02*
X12524539Y-8757745D01*
X12676920Y-8957745D02*
X12676920Y-8824411D01*
X12676920Y-8843459D02*
X12686443Y-8833935D01*
X12686443Y-8833935D02*
X12705491Y-8824411D01*
X12705491Y-8824411D02*
X12734063Y-8824411D01*
X12734063Y-8824411D02*
X12753110Y-8833935D01*
X12753110Y-8833935D02*
X12762634Y-8852983D01*
X12762634Y-8852983D02*
X12762634Y-8957745D01*
X12762634Y-8852983D02*
X12772158Y-8833935D01*
X12772158Y-8833935D02*
X12791205Y-8824411D01*
X12791205Y-8824411D02*
X12819777Y-8824411D01*
X12819777Y-8824411D02*
X12838824Y-8833935D01*
X12838824Y-8833935D02*
X12848348Y-8852983D01*
X12848348Y-8852983D02*
X12848348Y-8957745D01*
X12943586Y-8957745D02*
X12943586Y-8824411D01*
X12943586Y-8843459D02*
X12953110Y-8833935D01*
X12953110Y-8833935D02*
X12972158Y-8824411D01*
X12972158Y-8824411D02*
X13000729Y-8824411D01*
X13000729Y-8824411D02*
X13019777Y-8833935D01*
X13019777Y-8833935D02*
X13029301Y-8852983D01*
X13029301Y-8852983D02*
X13029301Y-8957745D01*
X13029301Y-8852983D02*
X13038824Y-8833935D01*
X13038824Y-8833935D02*
X13057872Y-8824411D01*
X13057872Y-8824411D02*
X13086443Y-8824411D01*
X13086443Y-8824411D02*
X13105491Y-8833935D01*
X13105491Y-8833935D02*
X13115015Y-8852983D01*
X13115015Y-8852983D02*
X13115015Y-8957745D01*
X13505491Y-8748221D02*
X13334063Y-9005364D01*
X13762634Y-8757745D02*
X13781682Y-8757745D01*
X13781682Y-8757745D02*
X13800729Y-8767269D01*
X13800729Y-8767269D02*
X13810253Y-8776792D01*
X13810253Y-8776792D02*
X13819777Y-8795840D01*
X13819777Y-8795840D02*
X13829301Y-8833935D01*
X13829301Y-8833935D02*
X13829301Y-8881554D01*
X13829301Y-8881554D02*
X13819777Y-8919649D01*
X13819777Y-8919649D02*
X13810253Y-8938697D01*
X13810253Y-8938697D02*
X13800729Y-8948221D01*
X13800729Y-8948221D02*
X13781682Y-8957745D01*
X13781682Y-8957745D02*
X13762634Y-8957745D01*
X13762634Y-8957745D02*
X13743586Y-8948221D01*
X13743586Y-8948221D02*
X13734063Y-8938697D01*
X13734063Y-8938697D02*
X13724539Y-8919649D01*
X13724539Y-8919649D02*
X13715015Y-8881554D01*
X13715015Y-8881554D02*
X13715015Y-8833935D01*
X13715015Y-8833935D02*
X13724539Y-8795840D01*
X13724539Y-8795840D02*
X13734063Y-8776792D01*
X13734063Y-8776792D02*
X13743586Y-8767269D01*
X13743586Y-8767269D02*
X13762634Y-8757745D01*
X13915015Y-8938697D02*
X13924539Y-8948221D01*
X13924539Y-8948221D02*
X13915015Y-8957745D01*
X13915015Y-8957745D02*
X13905491Y-8948221D01*
X13905491Y-8948221D02*
X13915015Y-8938697D01*
X13915015Y-8938697D02*
X13915015Y-8957745D01*
X14048348Y-8757745D02*
X14067396Y-8757745D01*
X14067396Y-8757745D02*
X14086444Y-8767269D01*
X14086444Y-8767269D02*
X14095967Y-8776792D01*
X14095967Y-8776792D02*
X14105491Y-8795840D01*
X14105491Y-8795840D02*
X14115015Y-8833935D01*
X14115015Y-8833935D02*
X14115015Y-8881554D01*
X14115015Y-8881554D02*
X14105491Y-8919649D01*
X14105491Y-8919649D02*
X14095967Y-8938697D01*
X14095967Y-8938697D02*
X14086444Y-8948221D01*
X14086444Y-8948221D02*
X14067396Y-8957745D01*
X14067396Y-8957745D02*
X14048348Y-8957745D01*
X14048348Y-8957745D02*
X14029301Y-8948221D01*
X14029301Y-8948221D02*
X14019777Y-8938697D01*
X14019777Y-8938697D02*
X14010253Y-8919649D01*
X14010253Y-8919649D02*
X14000729Y-8881554D01*
X14000729Y-8881554D02*
X14000729Y-8833935D01*
X14000729Y-8833935D02*
X14010253Y-8795840D01*
X14010253Y-8795840D02*
X14019777Y-8776792D01*
X14019777Y-8776792D02*
X14029301Y-8767269D01*
X14029301Y-8767269D02*
X14048348Y-8757745D01*
X14229301Y-8843459D02*
X14210253Y-8833935D01*
X14210253Y-8833935D02*
X14200729Y-8824411D01*
X14200729Y-8824411D02*
X14191206Y-8805364D01*
X14191206Y-8805364D02*
X14191206Y-8795840D01*
X14191206Y-8795840D02*
X14200729Y-8776792D01*
X14200729Y-8776792D02*
X14210253Y-8767269D01*
X14210253Y-8767269D02*
X14229301Y-8757745D01*
X14229301Y-8757745D02*
X14267396Y-8757745D01*
X14267396Y-8757745D02*
X14286444Y-8767269D01*
X14286444Y-8767269D02*
X14295967Y-8776792D01*
X14295967Y-8776792D02*
X14305491Y-8795840D01*
X14305491Y-8795840D02*
X14305491Y-8805364D01*
X14305491Y-8805364D02*
X14295967Y-8824411D01*
X14295967Y-8824411D02*
X14286444Y-8833935D01*
X14286444Y-8833935D02*
X14267396Y-8843459D01*
X14267396Y-8843459D02*
X14229301Y-8843459D01*
X14229301Y-8843459D02*
X14210253Y-8852983D01*
X14210253Y-8852983D02*
X14200729Y-8862507D01*
X14200729Y-8862507D02*
X14191206Y-8881554D01*
X14191206Y-8881554D02*
X14191206Y-8919649D01*
X14191206Y-8919649D02*
X14200729Y-8938697D01*
X14200729Y-8938697D02*
X14210253Y-8948221D01*
X14210253Y-8948221D02*
X14229301Y-8957745D01*
X14229301Y-8957745D02*
X14267396Y-8957745D01*
X14267396Y-8957745D02*
X14286444Y-8948221D01*
X14286444Y-8948221D02*
X14295967Y-8938697D01*
X14295967Y-8938697D02*
X14305491Y-8919649D01*
X14305491Y-8919649D02*
X14305491Y-8881554D01*
X14305491Y-8881554D02*
X14295967Y-8862507D01*
X14295967Y-8862507D02*
X14286444Y-8852983D01*
X14286444Y-8852983D02*
X14267396Y-8843459D01*
X14476920Y-8757745D02*
X14438825Y-8757745D01*
X14438825Y-8757745D02*
X14419777Y-8767269D01*
X14419777Y-8767269D02*
X14410253Y-8776792D01*
X14410253Y-8776792D02*
X14391206Y-8805364D01*
X14391206Y-8805364D02*
X14381682Y-8843459D01*
X14381682Y-8843459D02*
X14381682Y-8919649D01*
X14381682Y-8919649D02*
X14391206Y-8938697D01*
X14391206Y-8938697D02*
X14400729Y-8948221D01*
X14400729Y-8948221D02*
X14419777Y-8957745D01*
X14419777Y-8957745D02*
X14457872Y-8957745D01*
X14457872Y-8957745D02*
X14476920Y-8948221D01*
X14476920Y-8948221D02*
X14486444Y-8938697D01*
X14486444Y-8938697D02*
X14495967Y-8919649D01*
X14495967Y-8919649D02*
X14495967Y-8872030D01*
X14495967Y-8872030D02*
X14486444Y-8852983D01*
X14486444Y-8852983D02*
X14476920Y-8843459D01*
X14476920Y-8843459D02*
X14457872Y-8833935D01*
X14457872Y-8833935D02*
X14419777Y-8833935D01*
X14419777Y-8833935D02*
X14400729Y-8843459D01*
X14400729Y-8843459D02*
X14391206Y-8852983D01*
X14391206Y-8852983D02*
X14381682Y-8872030D01*
X14667396Y-8757745D02*
X14629301Y-8757745D01*
X14629301Y-8757745D02*
X14610253Y-8767269D01*
X14610253Y-8767269D02*
X14600729Y-8776792D01*
X14600729Y-8776792D02*
X14581682Y-8805364D01*
X14581682Y-8805364D02*
X14572158Y-8843459D01*
X14572158Y-8843459D02*
X14572158Y-8919649D01*
X14572158Y-8919649D02*
X14581682Y-8938697D01*
X14581682Y-8938697D02*
X14591206Y-8948221D01*
X14591206Y-8948221D02*
X14610253Y-8957745D01*
X14610253Y-8957745D02*
X14648348Y-8957745D01*
X14648348Y-8957745D02*
X14667396Y-8948221D01*
X14667396Y-8948221D02*
X14676920Y-8938697D01*
X14676920Y-8938697D02*
X14686444Y-8919649D01*
X14686444Y-8919649D02*
X14686444Y-8872030D01*
X14686444Y-8872030D02*
X14676920Y-8852983D01*
X14676920Y-8852983D02*
X14667396Y-8843459D01*
X14667396Y-8843459D02*
X14648348Y-8833935D01*
X14648348Y-8833935D02*
X14610253Y-8833935D01*
X14610253Y-8833935D02*
X14591206Y-8843459D01*
X14591206Y-8843459D02*
X14581682Y-8852983D01*
X14581682Y-8852983D02*
X14572158Y-8872030D01*
X14762634Y-8757745D02*
X14762634Y-8795840D01*
X14838825Y-8757745D02*
X14838825Y-8795840D01*
X15134063Y-9033935D02*
X15124539Y-9024411D01*
X15124539Y-9024411D02*
X15105491Y-8995840D01*
X15105491Y-8995840D02*
X15095968Y-8976792D01*
X15095968Y-8976792D02*
X15086444Y-8948221D01*
X15086444Y-8948221D02*
X15076920Y-8900602D01*
X15076920Y-8900602D02*
X15076920Y-8862507D01*
X15076920Y-8862507D02*
X15086444Y-8814888D01*
X15086444Y-8814888D02*
X15095968Y-8786316D01*
X15095968Y-8786316D02*
X15105491Y-8767269D01*
X15105491Y-8767269D02*
X15124539Y-8738697D01*
X15124539Y-8738697D02*
X15134063Y-8729173D01*
X15295968Y-8824411D02*
X15295968Y-8957745D01*
X15248348Y-8748221D02*
X15200729Y-8891078D01*
X15200729Y-8891078D02*
X15324539Y-8891078D01*
X15553110Y-8957745D02*
X15553110Y-8757745D01*
X15638825Y-8957745D02*
X15638825Y-8852983D01*
X15638825Y-8852983D02*
X15629301Y-8833935D01*
X15629301Y-8833935D02*
X15610253Y-8824411D01*
X15610253Y-8824411D02*
X15581682Y-8824411D01*
X15581682Y-8824411D02*
X15562634Y-8833935D01*
X15562634Y-8833935D02*
X15553110Y-8843459D01*
X15762634Y-8957745D02*
X15743587Y-8948221D01*
X15743587Y-8948221D02*
X15734063Y-8938697D01*
X15734063Y-8938697D02*
X15724539Y-8919649D01*
X15724539Y-8919649D02*
X15724539Y-8862507D01*
X15724539Y-8862507D02*
X15734063Y-8843459D01*
X15734063Y-8843459D02*
X15743587Y-8833935D01*
X15743587Y-8833935D02*
X15762634Y-8824411D01*
X15762634Y-8824411D02*
X15791206Y-8824411D01*
X15791206Y-8824411D02*
X15810253Y-8833935D01*
X15810253Y-8833935D02*
X15819777Y-8843459D01*
X15819777Y-8843459D02*
X15829301Y-8862507D01*
X15829301Y-8862507D02*
X15829301Y-8919649D01*
X15829301Y-8919649D02*
X15819777Y-8938697D01*
X15819777Y-8938697D02*
X15810253Y-8948221D01*
X15810253Y-8948221D02*
X15791206Y-8957745D01*
X15791206Y-8957745D02*
X15762634Y-8957745D01*
X15943587Y-8957745D02*
X15924539Y-8948221D01*
X15924539Y-8948221D02*
X15915015Y-8929173D01*
X15915015Y-8929173D02*
X15915015Y-8757745D01*
X16095968Y-8948221D02*
X16076920Y-8957745D01*
X16076920Y-8957745D02*
X16038825Y-8957745D01*
X16038825Y-8957745D02*
X16019777Y-8948221D01*
X16019777Y-8948221D02*
X16010253Y-8929173D01*
X16010253Y-8929173D02*
X16010253Y-8852983D01*
X16010253Y-8852983D02*
X16019777Y-8833935D01*
X16019777Y-8833935D02*
X16038825Y-8824411D01*
X16038825Y-8824411D02*
X16076920Y-8824411D01*
X16076920Y-8824411D02*
X16095968Y-8833935D01*
X16095968Y-8833935D02*
X16105491Y-8852983D01*
X16105491Y-8852983D02*
X16105491Y-8872030D01*
X16105491Y-8872030D02*
X16010253Y-8891078D01*
X16181682Y-8948221D02*
X16200730Y-8957745D01*
X16200730Y-8957745D02*
X16238825Y-8957745D01*
X16238825Y-8957745D02*
X16257872Y-8948221D01*
X16257872Y-8948221D02*
X16267396Y-8929173D01*
X16267396Y-8929173D02*
X16267396Y-8919649D01*
X16267396Y-8919649D02*
X16257872Y-8900602D01*
X16257872Y-8900602D02*
X16238825Y-8891078D01*
X16238825Y-8891078D02*
X16210253Y-8891078D01*
X16210253Y-8891078D02*
X16191206Y-8881554D01*
X16191206Y-8881554D02*
X16181682Y-8862507D01*
X16181682Y-8862507D02*
X16181682Y-8852983D01*
X16181682Y-8852983D02*
X16191206Y-8833935D01*
X16191206Y-8833935D02*
X16210253Y-8824411D01*
X16210253Y-8824411D02*
X16238825Y-8824411D01*
X16238825Y-8824411D02*
X16257872Y-8833935D01*
X16334063Y-9033935D02*
X16343587Y-9024411D01*
X16343587Y-9024411D02*
X16362634Y-8995840D01*
X16362634Y-8995840D02*
X16372158Y-8976792D01*
X16372158Y-8976792D02*
X16381682Y-8948221D01*
X16381682Y-8948221D02*
X16391206Y-8900602D01*
X16391206Y-8900602D02*
X16391206Y-8862507D01*
X16391206Y-8862507D02*
X16381682Y-8814888D01*
X16381682Y-8814888D02*
X16372158Y-8786316D01*
X16372158Y-8786316D02*
X16362634Y-8767269D01*
X16362634Y-8767269D02*
X16343587Y-8738697D01*
X16343587Y-8738697D02*
X16334063Y-8729173D01*
M02*
