%TF.GenerationSoftware,KiCad,Pcbnew,8.0.1*%
%TF.CreationDate,2024-12-19T13:08:11+01:00*%
%TF.ProjectId,on_off_switch,6f6e5f6f-6666-45f7-9377-697463682e6b,rev?*%
%TF.SameCoordinates,Original*%
%TF.FileFunction,Soldermask,Top*%
%TF.FilePolarity,Negative*%
%FSLAX46Y46*%
G04 Gerber Fmt 4.6, Leading zero omitted, Abs format (unit mm)*
G04 Created by KiCad (PCBNEW 8.0.1) date 2024-12-19 13:08:11*
%MOMM*%
%LPD*%
G01*
G04 APERTURE LIST*
G04 Aperture macros list*
%AMRoundRect*
0 Rectangle with rounded corners*
0 $1 Rounding radius*
0 $2 $3 $4 $5 $6 $7 $8 $9 X,Y pos of 4 corners*
0 Add a 4 corners polygon primitive as box body*
4,1,4,$2,$3,$4,$5,$6,$7,$8,$9,$2,$3,0*
0 Add four circle primitives for the rounded corners*
1,1,$1+$1,$2,$3*
1,1,$1+$1,$4,$5*
1,1,$1+$1,$6,$7*
1,1,$1+$1,$8,$9*
0 Add four rect primitives between the rounded corners*
20,1,$1+$1,$2,$3,$4,$5,0*
20,1,$1+$1,$4,$5,$6,$7,0*
20,1,$1+$1,$6,$7,$8,$9,0*
20,1,$1+$1,$8,$9,$2,$3,0*%
%AMFreePoly0*
4,1,9,5.362500,-0.866500,1.237500,-0.866500,1.237500,-0.450000,-1.237500,-0.450000,-1.237500,0.450000,1.237500,0.450000,1.237500,0.866500,5.362500,0.866500,5.362500,-0.866500,5.362500,-0.866500,$1*%
G04 Aperture macros list end*
%ADD10C,3.800000*%
%ADD11RoundRect,0.250000X0.262500X0.450000X-0.262500X0.450000X-0.262500X-0.450000X0.262500X-0.450000X0*%
%ADD12RoundRect,0.150000X0.150000X-0.587500X0.150000X0.587500X-0.150000X0.587500X-0.150000X-0.587500X0*%
%ADD13R,0.850000X0.850000*%
%ADD14C,1.650000*%
%ADD15RoundRect,0.225000X0.250000X-0.225000X0.250000X0.225000X-0.250000X0.225000X-0.250000X-0.225000X0*%
%ADD16RoundRect,0.225000X-0.925000X-0.225000X0.925000X-0.225000X0.925000X0.225000X-0.925000X0.225000X0*%
%ADD17FreePoly0,0.000000*%
%ADD18RoundRect,0.225000X0.225000X0.250000X-0.225000X0.250000X-0.225000X-0.250000X0.225000X-0.250000X0*%
%ADD19R,1.600000X1.600000*%
%ADD20O,1.600000X1.600000*%
%ADD21R,1.200000X1.200000*%
G04 APERTURE END LIST*
D10*
%TO.C,+12V*%
X118110000Y-67560000D03*
%TD*%
D11*
%TO.C,R1*%
X140222500Y-60240000D03*
X138397500Y-60240000D03*
%TD*%
D12*
%TO.C,Q1*%
X134540000Y-60405000D03*
X136440000Y-60405000D03*
X135490000Y-58530000D03*
%TD*%
D10*
%TO.C,GND*%
X118090000Y-62330000D03*
%TD*%
D13*
%TO.C,PB1*%
X126950000Y-71350000D03*
%TD*%
D14*
%TO.C,K1*%
X125185000Y-55240000D03*
X127725000Y-55240000D03*
X135345000Y-55240000D03*
X135345000Y-50160000D03*
X127725000Y-50160000D03*
X125185000Y-50160000D03*
%TD*%
D15*
%TO.C,C1*%
X121950000Y-64355000D03*
X121950000Y-62805000D03*
%TD*%
D16*
%TO.C,U2*%
X124740000Y-64930000D03*
D17*
X124827500Y-66430000D03*
D16*
X124740000Y-67930000D03*
%TD*%
D10*
%TO.C,NO*%
X118777500Y-50630000D03*
%TD*%
%TO.C,COM*%
X118777500Y-55980000D03*
%TD*%
D18*
%TO.C,C2*%
X127225000Y-63160000D03*
X125675000Y-63160000D03*
%TD*%
D13*
%TO.C,PB4*%
X119920000Y-71350000D03*
%TD*%
%TO.C,PB0*%
X129290000Y-71350000D03*
%TD*%
D19*
%TO.C,U1*%
X139660000Y-63140000D03*
D20*
X137120000Y-63140000D03*
X134580000Y-63140000D03*
X132040000Y-63140000D03*
X132040000Y-70760000D03*
X134580000Y-70760000D03*
X137120000Y-70760000D03*
X139660000Y-70760000D03*
%TD*%
D13*
%TO.C,PB5*%
X122260000Y-71350000D03*
%TD*%
D21*
%TO.C,D2*%
X121730000Y-66080000D03*
X121730000Y-68880000D03*
%TD*%
%TO.C,D1*%
X128350000Y-59110000D03*
X131150000Y-59110000D03*
%TD*%
D13*
%TO.C,PB2*%
X124600000Y-71360000D03*
%TD*%
M02*
