%TF.GenerationSoftware,KiCad,Pcbnew,8.0.1*%
%TF.CreationDate,2024-12-19T13:08:10+01:00*%
%TF.ProjectId,on_off_switch,6f6e5f6f-6666-45f7-9377-697463682e6b,rev?*%
%TF.SameCoordinates,Original*%
%TF.FileFunction,Copper,L1,Top*%
%TF.FilePolarity,Positive*%
%FSLAX46Y46*%
G04 Gerber Fmt 4.6, Leading zero omitted, Abs format (unit mm)*
G04 Created by KiCad (PCBNEW 8.0.1) date 2024-12-19 13:08:10*
%MOMM*%
%LPD*%
G01*
G04 APERTURE LIST*
G04 Aperture macros list*
%AMRoundRect*
0 Rectangle with rounded corners*
0 $1 Rounding radius*
0 $2 $3 $4 $5 $6 $7 $8 $9 X,Y pos of 4 corners*
0 Add a 4 corners polygon primitive as box body*
4,1,4,$2,$3,$4,$5,$6,$7,$8,$9,$2,$3,0*
0 Add four circle primitives for the rounded corners*
1,1,$1+$1,$2,$3*
1,1,$1+$1,$4,$5*
1,1,$1+$1,$6,$7*
1,1,$1+$1,$8,$9*
0 Add four rect primitives between the rounded corners*
20,1,$1+$1,$2,$3,$4,$5,0*
20,1,$1+$1,$4,$5,$6,$7,0*
20,1,$1+$1,$6,$7,$8,$9,0*
20,1,$1+$1,$8,$9,$2,$3,0*%
%AMFreePoly0*
4,1,9,5.362500,-0.866500,1.237500,-0.866500,1.237500,-0.450000,-1.237500,-0.450000,-1.237500,0.450000,1.237500,0.450000,1.237500,0.866500,5.362500,0.866500,5.362500,-0.866500,5.362500,-0.866500,$1*%
G04 Aperture macros list end*
%TA.AperFunction,ComponentPad*%
%ADD10C,3.800000*%
%TD*%
%TA.AperFunction,SMDPad,CuDef*%
%ADD11RoundRect,0.250000X0.262500X0.450000X-0.262500X0.450000X-0.262500X-0.450000X0.262500X-0.450000X0*%
%TD*%
%TA.AperFunction,SMDPad,CuDef*%
%ADD12RoundRect,0.150000X0.150000X-0.587500X0.150000X0.587500X-0.150000X0.587500X-0.150000X-0.587500X0*%
%TD*%
%TA.AperFunction,ComponentPad*%
%ADD13R,0.850000X0.850000*%
%TD*%
%TA.AperFunction,ComponentPad*%
%ADD14C,1.650000*%
%TD*%
%TA.AperFunction,SMDPad,CuDef*%
%ADD15RoundRect,0.225000X0.250000X-0.225000X0.250000X0.225000X-0.250000X0.225000X-0.250000X-0.225000X0*%
%TD*%
%TA.AperFunction,SMDPad,CuDef*%
%ADD16RoundRect,0.225000X-0.925000X-0.225000X0.925000X-0.225000X0.925000X0.225000X-0.925000X0.225000X0*%
%TD*%
%TA.AperFunction,SMDPad,CuDef*%
%ADD17FreePoly0,0.000000*%
%TD*%
%TA.AperFunction,SMDPad,CuDef*%
%ADD18RoundRect,0.225000X0.225000X0.250000X-0.225000X0.250000X-0.225000X-0.250000X0.225000X-0.250000X0*%
%TD*%
%TA.AperFunction,ComponentPad*%
%ADD19R,1.600000X1.600000*%
%TD*%
%TA.AperFunction,ComponentPad*%
%ADD20O,1.600000X1.600000*%
%TD*%
%TA.AperFunction,SMDPad,CuDef*%
%ADD21R,1.200000X1.200000*%
%TD*%
%TA.AperFunction,Conductor*%
%ADD22C,0.600000*%
%TD*%
%TA.AperFunction,Conductor*%
%ADD23C,0.200000*%
%TD*%
%TA.AperFunction,Conductor*%
%ADD24C,0.350000*%
%TD*%
G04 APERTURE END LIST*
D10*
%TO.P,+12V,1,1*%
%TO.N,+12V*%
X118110000Y-67560000D03*
%TD*%
D11*
%TO.P,R1,1*%
%TO.N,base_signal*%
X140222500Y-60240000D03*
%TO.P,R1,2*%
%TO.N,Net-(Q1-B)*%
X138397500Y-60240000D03*
%TD*%
D12*
%TO.P,Q1,1,B*%
%TO.N,Net-(Q1-B)*%
X134540000Y-60405000D03*
%TO.P,Q1,2,E*%
%TO.N,GND*%
X136440000Y-60405000D03*
%TO.P,Q1,3,C*%
%TO.N,Net-(D1-A)*%
X135490000Y-58530000D03*
%TD*%
D10*
%TO.P,GND,1,1*%
%TO.N,GND*%
X118090000Y-62330000D03*
%TD*%
D13*
%TO.P,PB1,1,1*%
%TO.N,Net-(U1-PB1)*%
X126950000Y-71350000D03*
%TD*%
D14*
%TO.P,K1,1,NC*%
%TO.N,unconnected-(K1-NC-Pad1)*%
X125185000Y-55240000D03*
%TO.P,K1,2,COIL_1*%
%TO.N,+5V*%
X127725000Y-55240000D03*
%TO.P,K1,3,COM_1*%
%TO.N,unconnected-(K1-COM_1-Pad3)*%
X135345000Y-55240000D03*
%TO.P,K1,4,COM_2*%
%TO.N,MCU_PIN_AS&G*%
X135345000Y-50160000D03*
%TO.P,K1,5,COIL_2*%
%TO.N,Net-(D1-A)*%
X127725000Y-50160000D03*
%TO.P,K1,6,NO*%
%TO.N,12VSIGNAL_PIN_AS&G*%
X125185000Y-50160000D03*
%TD*%
D15*
%TO.P,C1,1*%
%TO.N,Net-(D2-K)*%
X121950000Y-64355000D03*
%TO.P,C1,2*%
%TO.N,GND*%
X121950000Y-62805000D03*
%TD*%
D16*
%TO.P,U2,1,OUT*%
%TO.N,+5V*%
X124740000Y-64930000D03*
D17*
%TO.P,U2,2,GND*%
%TO.N,GND*%
X124827500Y-66430000D03*
D16*
%TO.P,U2,3,IN*%
%TO.N,Net-(D2-K)*%
X124740000Y-67930000D03*
%TD*%
D10*
%TO.P,NO,1,1*%
%TO.N,12VSIGNAL_PIN_AS&G*%
X118777500Y-50630000D03*
%TD*%
%TO.P,COM,1,1*%
%TO.N,MCU_PIN_AS&G*%
X118777500Y-55980000D03*
%TD*%
D18*
%TO.P,C2,1*%
%TO.N,+5V*%
X127225000Y-63160000D03*
%TO.P,C2,2*%
%TO.N,GND*%
X125675000Y-63160000D03*
%TD*%
D13*
%TO.P,PB4,1,1*%
%TO.N,Net-(U1-PB4)*%
X119920000Y-71350000D03*
%TD*%
%TO.P,PB0,1,1*%
%TO.N,Net-(U1-PB0)*%
X129290000Y-71350000D03*
%TD*%
D19*
%TO.P,U1,1,~{RESET}/PB5*%
%TO.N,Net-(U1-~{RESET}{slash}PB5)*%
X139660000Y-63140000D03*
D20*
%TO.P,U1,2,PB3*%
%TO.N,base_signal*%
X137120000Y-63140000D03*
%TO.P,U1,3,PB4*%
%TO.N,Net-(U1-PB4)*%
X134580000Y-63140000D03*
%TO.P,U1,4,GND*%
%TO.N,GND*%
X132040000Y-63140000D03*
%TO.P,U1,5,PB0*%
%TO.N,Net-(U1-PB0)*%
X132040000Y-70760000D03*
%TO.P,U1,6,PB1*%
%TO.N,Net-(U1-PB1)*%
X134580000Y-70760000D03*
%TO.P,U1,7,PB2*%
%TO.N,Net-(U1-PB2)*%
X137120000Y-70760000D03*
%TO.P,U1,8,VCC*%
%TO.N,+5V*%
X139660000Y-70760000D03*
%TD*%
D13*
%TO.P,PB5,1,1*%
%TO.N,Net-(U1-~{RESET}{slash}PB5)*%
X122260000Y-71350000D03*
%TD*%
D21*
%TO.P,D2,1,K*%
%TO.N,Net-(D2-K)*%
X121730000Y-66080000D03*
%TO.P,D2,2,A*%
%TO.N,+12V*%
X121730000Y-68880000D03*
%TD*%
%TO.P,D1,1,K*%
%TO.N,+5V*%
X128350000Y-59110000D03*
%TO.P,D1,2,A*%
%TO.N,Net-(D1-A)*%
X131150000Y-59110000D03*
%TD*%
D13*
%TO.P,PB2,1,1*%
%TO.N,Net-(U1-PB2)*%
X124600000Y-71360000D03*
%TD*%
D22*
%TO.N,GND*%
X123050000Y-65421540D02*
X124058460Y-66430000D01*
X123050000Y-63310000D02*
X123050000Y-65421540D01*
X122545000Y-62805000D02*
X123050000Y-63310000D01*
X124058460Y-66430000D02*
X124827500Y-66430000D01*
X121950000Y-62805000D02*
X122545000Y-62805000D01*
X118580000Y-62330000D02*
X118580000Y-63140000D01*
X120980000Y-62330000D02*
X118580000Y-62330000D01*
X121530000Y-62880000D02*
X120980000Y-62330000D01*
X125675000Y-63160000D02*
X125395000Y-62880000D01*
X125395000Y-62880000D02*
X121530000Y-62880000D01*
D23*
%TO.N,Net-(Q1-B)*%
X137357500Y-59200000D02*
X138397500Y-60240000D01*
X134880000Y-60586948D02*
X136266948Y-59200000D01*
X136266948Y-59200000D02*
X137357500Y-59200000D01*
D24*
%TO.N,MCU_PIN_AS&G*%
X127020000Y-48900000D02*
X133750000Y-48900000D01*
X133750000Y-48900000D02*
X135310000Y-50460000D01*
X121910000Y-55980000D02*
X126430000Y-51460000D01*
X126430000Y-51460000D02*
X126430000Y-49490000D01*
X126430000Y-49490000D02*
X127020000Y-48900000D01*
X118777500Y-55980000D02*
X121910000Y-55980000D01*
D23*
%TO.N,base_signal*%
X139180000Y-61820000D02*
X140222500Y-60777500D01*
X140222500Y-60777500D02*
X140222500Y-60240000D01*
X138440000Y-61820000D02*
X139180000Y-61820000D01*
X137120000Y-63140000D02*
X138440000Y-61820000D01*
D22*
%TO.N,+12V*%
X120440000Y-67560000D02*
X121790000Y-68910000D01*
X118570000Y-67560000D02*
X120440000Y-67560000D01*
X118530000Y-67600000D02*
X118570000Y-67560000D01*
%TO.N,Net-(D2-K)*%
X121790000Y-64625000D02*
X122050000Y-64365000D01*
X121790000Y-66110000D02*
X121790000Y-64625000D01*
X123610000Y-67930000D02*
X121790000Y-66110000D01*
X124740000Y-67930000D02*
X123610000Y-67930000D01*
%TO.N,+12V*%
X118580000Y-67700000D02*
X118770000Y-67890000D01*
X118580000Y-67700000D02*
X118860000Y-67980000D01*
X118580000Y-67700000D02*
X119695000Y-67700000D01*
%TO.N,GND*%
X124137500Y-66390000D02*
X124018460Y-66390000D01*
D24*
X136507500Y-60827500D02*
X135425000Y-61910000D01*
X135425000Y-61910000D02*
X133270000Y-61910000D01*
X133270000Y-61910000D02*
X132040000Y-63140000D01*
D22*
%TO.N,+5V*%
X128350000Y-62035000D02*
X128350000Y-56200000D01*
X124050000Y-64890000D02*
X125495000Y-64890000D01*
X133790000Y-64890000D02*
X124050000Y-64890000D01*
X125495000Y-64890000D02*
X128350000Y-62035000D01*
X128350000Y-56200000D02*
X127690000Y-55540000D01*
X139660000Y-70760000D02*
X133790000Y-64890000D01*
%TO.N,Net-(D1-A)*%
X131150000Y-53920000D02*
X131150000Y-59110000D01*
X131150000Y-59110000D02*
X131307500Y-58952500D01*
X131307500Y-58952500D02*
X135557500Y-58952500D01*
X127690000Y-50460000D02*
X131150000Y-53920000D01*
D24*
%TO.N,12VSIGNAL_PIN_AS&G*%
X118777500Y-50630000D02*
X124980000Y-50630000D01*
X124980000Y-50630000D02*
X125150000Y-50460000D01*
D23*
%TO.N,Net-(Q1-B)*%
X138865000Y-60840000D02*
X138850000Y-60840000D01*
%TD*%
M02*
