%TF.GenerationSoftware,KiCad,Pcbnew,8.0.1*%
%TF.CreationDate,2024-12-19T13:08:11+01:00*%
%TF.ProjectId,on_off_switch,6f6e5f6f-6666-45f7-9377-697463682e6b,rev?*%
%TF.SameCoordinates,Original*%
%TF.FileFunction,Legend,Top*%
%TF.FilePolarity,Positive*%
%FSLAX46Y46*%
G04 Gerber Fmt 4.6, Leading zero omitted, Abs format (unit mm)*
G04 Created by KiCad (PCBNEW 8.0.1) date 2024-12-19 13:08:11*
%MOMM*%
%LPD*%
G01*
G04 APERTURE LIST*
%ADD10C,0.150000*%
%ADD11C,0.254000*%
%ADD12C,0.120000*%
%ADD13C,0.200000*%
%ADD14C,0.100000*%
G04 APERTURE END LIST*
D10*
X132439160Y-73822200D02*
X132582017Y-73869819D01*
X132582017Y-73869819D02*
X132820112Y-73869819D01*
X132820112Y-73869819D02*
X132915350Y-73822200D01*
X132915350Y-73822200D02*
X132962969Y-73774580D01*
X132962969Y-73774580D02*
X133010588Y-73679342D01*
X133010588Y-73679342D02*
X133010588Y-73584104D01*
X133010588Y-73584104D02*
X132962969Y-73488866D01*
X132962969Y-73488866D02*
X132915350Y-73441247D01*
X132915350Y-73441247D02*
X132820112Y-73393628D01*
X132820112Y-73393628D02*
X132629636Y-73346009D01*
X132629636Y-73346009D02*
X132534398Y-73298390D01*
X132534398Y-73298390D02*
X132486779Y-73250771D01*
X132486779Y-73250771D02*
X132439160Y-73155533D01*
X132439160Y-73155533D02*
X132439160Y-73060295D01*
X132439160Y-73060295D02*
X132486779Y-72965057D01*
X132486779Y-72965057D02*
X132534398Y-72917438D01*
X132534398Y-72917438D02*
X132629636Y-72869819D01*
X132629636Y-72869819D02*
X132867731Y-72869819D01*
X132867731Y-72869819D02*
X133010588Y-72917438D01*
X133391541Y-73584104D02*
X133867731Y-73584104D01*
X133296303Y-73869819D02*
X133629636Y-72869819D01*
X133629636Y-72869819D02*
X133962969Y-73869819D01*
X134296303Y-73869819D02*
X134296303Y-72869819D01*
X135248683Y-73869819D02*
X134772493Y-73869819D01*
X134772493Y-73869819D02*
X134772493Y-72869819D01*
X135772493Y-72869819D02*
X135962969Y-72869819D01*
X135962969Y-72869819D02*
X136058207Y-72917438D01*
X136058207Y-72917438D02*
X136153445Y-73012676D01*
X136153445Y-73012676D02*
X136201064Y-73203152D01*
X136201064Y-73203152D02*
X136201064Y-73536485D01*
X136201064Y-73536485D02*
X136153445Y-73726961D01*
X136153445Y-73726961D02*
X136058207Y-73822200D01*
X136058207Y-73822200D02*
X135962969Y-73869819D01*
X135962969Y-73869819D02*
X135772493Y-73869819D01*
X135772493Y-73869819D02*
X135677255Y-73822200D01*
X135677255Y-73822200D02*
X135582017Y-73726961D01*
X135582017Y-73726961D02*
X135534398Y-73536485D01*
X135534398Y-73536485D02*
X135534398Y-73203152D01*
X135534398Y-73203152D02*
X135582017Y-73012676D01*
X135582017Y-73012676D02*
X135677255Y-72917438D01*
X135677255Y-72917438D02*
X135772493Y-72869819D01*
X137201064Y-73869819D02*
X136867731Y-73393628D01*
X136629636Y-73869819D02*
X136629636Y-72869819D01*
X136629636Y-72869819D02*
X137010588Y-72869819D01*
X137010588Y-72869819D02*
X137105826Y-72917438D01*
X137105826Y-72917438D02*
X137153445Y-72965057D01*
X137153445Y-72965057D02*
X137201064Y-73060295D01*
X137201064Y-73060295D02*
X137201064Y-73203152D01*
X137201064Y-73203152D02*
X137153445Y-73298390D01*
X137153445Y-73298390D02*
X137105826Y-73346009D01*
X137105826Y-73346009D02*
X137010588Y-73393628D01*
X137010588Y-73393628D02*
X136629636Y-73393628D01*
X137391541Y-73965057D02*
X138153445Y-73965057D01*
X138867731Y-73869819D02*
X138391541Y-73869819D01*
X138391541Y-73869819D02*
X138391541Y-72869819D01*
X139201065Y-73346009D02*
X139534398Y-73346009D01*
X139677255Y-73869819D02*
X139201065Y-73869819D01*
X139201065Y-73869819D02*
X139201065Y-72869819D01*
X139201065Y-72869819D02*
X139677255Y-72869819D01*
X140105827Y-73346009D02*
X140439160Y-73346009D01*
X140582017Y-73869819D02*
X140105827Y-73869819D01*
X140105827Y-73869819D02*
X140105827Y-72869819D01*
X140105827Y-72869819D02*
X140582017Y-72869819D01*
X140867732Y-72869819D02*
X141439160Y-72869819D01*
X141153446Y-73869819D02*
X141153446Y-72869819D01*
X117054430Y-72132571D02*
X117054430Y-71552000D01*
X117344715Y-71842285D02*
X116764144Y-71842285D01*
X117344715Y-70789999D02*
X117344715Y-71225428D01*
X117344715Y-71007713D02*
X116582715Y-71007713D01*
X116582715Y-71007713D02*
X116691572Y-71080285D01*
X116691572Y-71080285D02*
X116764144Y-71152856D01*
X116764144Y-71152856D02*
X116800430Y-71225428D01*
X116655287Y-70499714D02*
X116619001Y-70463428D01*
X116619001Y-70463428D02*
X116582715Y-70390857D01*
X116582715Y-70390857D02*
X116582715Y-70209428D01*
X116582715Y-70209428D02*
X116619001Y-70136857D01*
X116619001Y-70136857D02*
X116655287Y-70100571D01*
X116655287Y-70100571D02*
X116727858Y-70064285D01*
X116727858Y-70064285D02*
X116800430Y-70064285D01*
X116800430Y-70064285D02*
X116909287Y-70100571D01*
X116909287Y-70100571D02*
X117344715Y-70535999D01*
X117344715Y-70535999D02*
X117344715Y-70064285D01*
X116582715Y-69846571D02*
X117344715Y-69592571D01*
X117344715Y-69592571D02*
X116582715Y-69338571D01*
X139200833Y-59184819D02*
X138867500Y-58708628D01*
X138629405Y-59184819D02*
X138629405Y-58184819D01*
X138629405Y-58184819D02*
X139010357Y-58184819D01*
X139010357Y-58184819D02*
X139105595Y-58232438D01*
X139105595Y-58232438D02*
X139153214Y-58280057D01*
X139153214Y-58280057D02*
X139200833Y-58375295D01*
X139200833Y-58375295D02*
X139200833Y-58518152D01*
X139200833Y-58518152D02*
X139153214Y-58613390D01*
X139153214Y-58613390D02*
X139105595Y-58661009D01*
X139105595Y-58661009D02*
X139010357Y-58708628D01*
X139010357Y-58708628D02*
X138629405Y-58708628D01*
X140153214Y-59184819D02*
X139581786Y-59184819D01*
X139867500Y-59184819D02*
X139867500Y-58184819D01*
X139867500Y-58184819D02*
X139772262Y-58327676D01*
X139772262Y-58327676D02*
X139677024Y-58422914D01*
X139677024Y-58422914D02*
X139581786Y-58470533D01*
X136844761Y-58650057D02*
X136749523Y-58602438D01*
X136749523Y-58602438D02*
X136654285Y-58507200D01*
X136654285Y-58507200D02*
X136511428Y-58364342D01*
X136511428Y-58364342D02*
X136416190Y-58316723D01*
X136416190Y-58316723D02*
X136320952Y-58316723D01*
X136368571Y-58554819D02*
X136273333Y-58507200D01*
X136273333Y-58507200D02*
X136178095Y-58411961D01*
X136178095Y-58411961D02*
X136130476Y-58221485D01*
X136130476Y-58221485D02*
X136130476Y-57888152D01*
X136130476Y-57888152D02*
X136178095Y-57697676D01*
X136178095Y-57697676D02*
X136273333Y-57602438D01*
X136273333Y-57602438D02*
X136368571Y-57554819D01*
X136368571Y-57554819D02*
X136559047Y-57554819D01*
X136559047Y-57554819D02*
X136654285Y-57602438D01*
X136654285Y-57602438D02*
X136749523Y-57697676D01*
X136749523Y-57697676D02*
X136797142Y-57888152D01*
X136797142Y-57888152D02*
X136797142Y-58221485D01*
X136797142Y-58221485D02*
X136749523Y-58411961D01*
X136749523Y-58411961D02*
X136654285Y-58507200D01*
X136654285Y-58507200D02*
X136559047Y-58554819D01*
X136559047Y-58554819D02*
X136368571Y-58554819D01*
X137749523Y-58554819D02*
X137178095Y-58554819D01*
X137463809Y-58554819D02*
X137463809Y-57554819D01*
X137463809Y-57554819D02*
X137368571Y-57697676D01*
X137368571Y-57697676D02*
X137273333Y-57792914D01*
X137273333Y-57792914D02*
X137178095Y-57840533D01*
X116279001Y-60000571D02*
X116242715Y-60073143D01*
X116242715Y-60073143D02*
X116242715Y-60182000D01*
X116242715Y-60182000D02*
X116279001Y-60290857D01*
X116279001Y-60290857D02*
X116351572Y-60363428D01*
X116351572Y-60363428D02*
X116424144Y-60399714D01*
X116424144Y-60399714D02*
X116569287Y-60436000D01*
X116569287Y-60436000D02*
X116678144Y-60436000D01*
X116678144Y-60436000D02*
X116823287Y-60399714D01*
X116823287Y-60399714D02*
X116895858Y-60363428D01*
X116895858Y-60363428D02*
X116968430Y-60290857D01*
X116968430Y-60290857D02*
X117004715Y-60182000D01*
X117004715Y-60182000D02*
X117004715Y-60109428D01*
X117004715Y-60109428D02*
X116968430Y-60000571D01*
X116968430Y-60000571D02*
X116932144Y-59964285D01*
X116932144Y-59964285D02*
X116678144Y-59964285D01*
X116678144Y-59964285D02*
X116678144Y-60109428D01*
X117004715Y-59637714D02*
X116242715Y-59637714D01*
X116242715Y-59637714D02*
X117004715Y-59202285D01*
X117004715Y-59202285D02*
X116242715Y-59202285D01*
X117004715Y-58839428D02*
X116242715Y-58839428D01*
X116242715Y-58839428D02*
X116242715Y-58657999D01*
X116242715Y-58657999D02*
X116279001Y-58549142D01*
X116279001Y-58549142D02*
X116351572Y-58476571D01*
X116351572Y-58476571D02*
X116424144Y-58440285D01*
X116424144Y-58440285D02*
X116569287Y-58403999D01*
X116569287Y-58403999D02*
X116678144Y-58403999D01*
X116678144Y-58403999D02*
X116823287Y-58440285D01*
X116823287Y-58440285D02*
X116895858Y-58476571D01*
X116895858Y-58476571D02*
X116968430Y-58549142D01*
X116968430Y-58549142D02*
X117004715Y-58657999D01*
X117004715Y-58657999D02*
X117004715Y-58839428D01*
X125986571Y-73254715D02*
X125986571Y-72492715D01*
X125986571Y-72492715D02*
X126276857Y-72492715D01*
X126276857Y-72492715D02*
X126349428Y-72529001D01*
X126349428Y-72529001D02*
X126385714Y-72565287D01*
X126385714Y-72565287D02*
X126422000Y-72637858D01*
X126422000Y-72637858D02*
X126422000Y-72746715D01*
X126422000Y-72746715D02*
X126385714Y-72819287D01*
X126385714Y-72819287D02*
X126349428Y-72855572D01*
X126349428Y-72855572D02*
X126276857Y-72891858D01*
X126276857Y-72891858D02*
X125986571Y-72891858D01*
X127002571Y-72855572D02*
X127111428Y-72891858D01*
X127111428Y-72891858D02*
X127147714Y-72928144D01*
X127147714Y-72928144D02*
X127184000Y-73000715D01*
X127184000Y-73000715D02*
X127184000Y-73109572D01*
X127184000Y-73109572D02*
X127147714Y-73182144D01*
X127147714Y-73182144D02*
X127111428Y-73218430D01*
X127111428Y-73218430D02*
X127038857Y-73254715D01*
X127038857Y-73254715D02*
X126748571Y-73254715D01*
X126748571Y-73254715D02*
X126748571Y-72492715D01*
X126748571Y-72492715D02*
X127002571Y-72492715D01*
X127002571Y-72492715D02*
X127075143Y-72529001D01*
X127075143Y-72529001D02*
X127111428Y-72565287D01*
X127111428Y-72565287D02*
X127147714Y-72637858D01*
X127147714Y-72637858D02*
X127147714Y-72710430D01*
X127147714Y-72710430D02*
X127111428Y-72783001D01*
X127111428Y-72783001D02*
X127075143Y-72819287D01*
X127075143Y-72819287D02*
X127002571Y-72855572D01*
X127002571Y-72855572D02*
X126748571Y-72855572D01*
X127909714Y-73254715D02*
X127474285Y-73254715D01*
X127692000Y-73254715D02*
X127692000Y-72492715D01*
X127692000Y-72492715D02*
X127619428Y-72601572D01*
X127619428Y-72601572D02*
X127546857Y-72674144D01*
X127546857Y-72674144D02*
X127474285Y-72710430D01*
D11*
X128962618Y-53274318D02*
X128962618Y-52004318D01*
X129688333Y-53274318D02*
X129144047Y-52548603D01*
X129688333Y-52004318D02*
X128962618Y-52730032D01*
X130897857Y-53274318D02*
X130172142Y-53274318D01*
X130534999Y-53274318D02*
X130534999Y-52004318D01*
X130534999Y-52004318D02*
X130414047Y-52185746D01*
X130414047Y-52185746D02*
X130293095Y-52306699D01*
X130293095Y-52306699D02*
X130172142Y-52367175D01*
D10*
X121893333Y-61754580D02*
X121845714Y-61802200D01*
X121845714Y-61802200D02*
X121702857Y-61849819D01*
X121702857Y-61849819D02*
X121607619Y-61849819D01*
X121607619Y-61849819D02*
X121464762Y-61802200D01*
X121464762Y-61802200D02*
X121369524Y-61706961D01*
X121369524Y-61706961D02*
X121321905Y-61611723D01*
X121321905Y-61611723D02*
X121274286Y-61421247D01*
X121274286Y-61421247D02*
X121274286Y-61278390D01*
X121274286Y-61278390D02*
X121321905Y-61087914D01*
X121321905Y-61087914D02*
X121369524Y-60992676D01*
X121369524Y-60992676D02*
X121464762Y-60897438D01*
X121464762Y-60897438D02*
X121607619Y-60849819D01*
X121607619Y-60849819D02*
X121702857Y-60849819D01*
X121702857Y-60849819D02*
X121845714Y-60897438D01*
X121845714Y-60897438D02*
X121893333Y-60945057D01*
X122845714Y-61849819D02*
X122274286Y-61849819D01*
X122560000Y-61849819D02*
X122560000Y-60849819D01*
X122560000Y-60849819D02*
X122464762Y-60992676D01*
X122464762Y-60992676D02*
X122369524Y-61087914D01*
X122369524Y-61087914D02*
X122274286Y-61135533D01*
X128938095Y-67634819D02*
X128938095Y-68444342D01*
X128938095Y-68444342D02*
X128985714Y-68539580D01*
X128985714Y-68539580D02*
X129033333Y-68587200D01*
X129033333Y-68587200D02*
X129128571Y-68634819D01*
X129128571Y-68634819D02*
X129319047Y-68634819D01*
X129319047Y-68634819D02*
X129414285Y-68587200D01*
X129414285Y-68587200D02*
X129461904Y-68539580D01*
X129461904Y-68539580D02*
X129509523Y-68444342D01*
X129509523Y-68444342D02*
X129509523Y-67634819D01*
X129938095Y-67730057D02*
X129985714Y-67682438D01*
X129985714Y-67682438D02*
X130080952Y-67634819D01*
X130080952Y-67634819D02*
X130319047Y-67634819D01*
X130319047Y-67634819D02*
X130414285Y-67682438D01*
X130414285Y-67682438D02*
X130461904Y-67730057D01*
X130461904Y-67730057D02*
X130509523Y-67825295D01*
X130509523Y-67825295D02*
X130509523Y-67920533D01*
X130509523Y-67920533D02*
X130461904Y-68063390D01*
X130461904Y-68063390D02*
X129890476Y-68634819D01*
X129890476Y-68634819D02*
X130509523Y-68634819D01*
X121794715Y-50276857D02*
X121032715Y-50276857D01*
X121032715Y-50276857D02*
X121794715Y-49841428D01*
X121794715Y-49841428D02*
X121032715Y-49841428D01*
X121032715Y-49333428D02*
X121032715Y-49188285D01*
X121032715Y-49188285D02*
X121069001Y-49115714D01*
X121069001Y-49115714D02*
X121141572Y-49043142D01*
X121141572Y-49043142D02*
X121286715Y-49006857D01*
X121286715Y-49006857D02*
X121540715Y-49006857D01*
X121540715Y-49006857D02*
X121685858Y-49043142D01*
X121685858Y-49043142D02*
X121758430Y-49115714D01*
X121758430Y-49115714D02*
X121794715Y-49188285D01*
X121794715Y-49188285D02*
X121794715Y-49333428D01*
X121794715Y-49333428D02*
X121758430Y-49406000D01*
X121758430Y-49406000D02*
X121685858Y-49478571D01*
X121685858Y-49478571D02*
X121540715Y-49514857D01*
X121540715Y-49514857D02*
X121286715Y-49514857D01*
X121286715Y-49514857D02*
X121141572Y-49478571D01*
X121141572Y-49478571D02*
X121069001Y-49406000D01*
X121069001Y-49406000D02*
X121032715Y-49333428D01*
X121722144Y-58068713D02*
X121758430Y-58104999D01*
X121758430Y-58104999D02*
X121794715Y-58213856D01*
X121794715Y-58213856D02*
X121794715Y-58286428D01*
X121794715Y-58286428D02*
X121758430Y-58395285D01*
X121758430Y-58395285D02*
X121685858Y-58467856D01*
X121685858Y-58467856D02*
X121613287Y-58504142D01*
X121613287Y-58504142D02*
X121468144Y-58540428D01*
X121468144Y-58540428D02*
X121359287Y-58540428D01*
X121359287Y-58540428D02*
X121214144Y-58504142D01*
X121214144Y-58504142D02*
X121141572Y-58467856D01*
X121141572Y-58467856D02*
X121069001Y-58395285D01*
X121069001Y-58395285D02*
X121032715Y-58286428D01*
X121032715Y-58286428D02*
X121032715Y-58213856D01*
X121032715Y-58213856D02*
X121069001Y-58104999D01*
X121069001Y-58104999D02*
X121105287Y-58068713D01*
X121032715Y-57596999D02*
X121032715Y-57451856D01*
X121032715Y-57451856D02*
X121069001Y-57379285D01*
X121069001Y-57379285D02*
X121141572Y-57306713D01*
X121141572Y-57306713D02*
X121286715Y-57270428D01*
X121286715Y-57270428D02*
X121540715Y-57270428D01*
X121540715Y-57270428D02*
X121685858Y-57306713D01*
X121685858Y-57306713D02*
X121758430Y-57379285D01*
X121758430Y-57379285D02*
X121794715Y-57451856D01*
X121794715Y-57451856D02*
X121794715Y-57596999D01*
X121794715Y-57596999D02*
X121758430Y-57669571D01*
X121758430Y-57669571D02*
X121685858Y-57742142D01*
X121685858Y-57742142D02*
X121540715Y-57778428D01*
X121540715Y-57778428D02*
X121286715Y-57778428D01*
X121286715Y-57778428D02*
X121141572Y-57742142D01*
X121141572Y-57742142D02*
X121069001Y-57669571D01*
X121069001Y-57669571D02*
X121032715Y-57596999D01*
X121794715Y-56943856D02*
X121032715Y-56943856D01*
X121032715Y-56943856D02*
X121577001Y-56689856D01*
X121577001Y-56689856D02*
X121032715Y-56435856D01*
X121032715Y-56435856D02*
X121794715Y-56435856D01*
X128688333Y-63689580D02*
X128640714Y-63737200D01*
X128640714Y-63737200D02*
X128497857Y-63784819D01*
X128497857Y-63784819D02*
X128402619Y-63784819D01*
X128402619Y-63784819D02*
X128259762Y-63737200D01*
X128259762Y-63737200D02*
X128164524Y-63641961D01*
X128164524Y-63641961D02*
X128116905Y-63546723D01*
X128116905Y-63546723D02*
X128069286Y-63356247D01*
X128069286Y-63356247D02*
X128069286Y-63213390D01*
X128069286Y-63213390D02*
X128116905Y-63022914D01*
X128116905Y-63022914D02*
X128164524Y-62927676D01*
X128164524Y-62927676D02*
X128259762Y-62832438D01*
X128259762Y-62832438D02*
X128402619Y-62784819D01*
X128402619Y-62784819D02*
X128497857Y-62784819D01*
X128497857Y-62784819D02*
X128640714Y-62832438D01*
X128640714Y-62832438D02*
X128688333Y-62880057D01*
X129069286Y-62880057D02*
X129116905Y-62832438D01*
X129116905Y-62832438D02*
X129212143Y-62784819D01*
X129212143Y-62784819D02*
X129450238Y-62784819D01*
X129450238Y-62784819D02*
X129545476Y-62832438D01*
X129545476Y-62832438D02*
X129593095Y-62880057D01*
X129593095Y-62880057D02*
X129640714Y-62975295D01*
X129640714Y-62975295D02*
X129640714Y-63070533D01*
X129640714Y-63070533D02*
X129593095Y-63213390D01*
X129593095Y-63213390D02*
X129021667Y-63784819D01*
X129021667Y-63784819D02*
X129640714Y-63784819D01*
X119016571Y-73274715D02*
X119016571Y-72512715D01*
X119016571Y-72512715D02*
X119306857Y-72512715D01*
X119306857Y-72512715D02*
X119379428Y-72549001D01*
X119379428Y-72549001D02*
X119415714Y-72585287D01*
X119415714Y-72585287D02*
X119452000Y-72657858D01*
X119452000Y-72657858D02*
X119452000Y-72766715D01*
X119452000Y-72766715D02*
X119415714Y-72839287D01*
X119415714Y-72839287D02*
X119379428Y-72875572D01*
X119379428Y-72875572D02*
X119306857Y-72911858D01*
X119306857Y-72911858D02*
X119016571Y-72911858D01*
X120032571Y-72875572D02*
X120141428Y-72911858D01*
X120141428Y-72911858D02*
X120177714Y-72948144D01*
X120177714Y-72948144D02*
X120214000Y-73020715D01*
X120214000Y-73020715D02*
X120214000Y-73129572D01*
X120214000Y-73129572D02*
X120177714Y-73202144D01*
X120177714Y-73202144D02*
X120141428Y-73238430D01*
X120141428Y-73238430D02*
X120068857Y-73274715D01*
X120068857Y-73274715D02*
X119778571Y-73274715D01*
X119778571Y-73274715D02*
X119778571Y-72512715D01*
X119778571Y-72512715D02*
X120032571Y-72512715D01*
X120032571Y-72512715D02*
X120105143Y-72549001D01*
X120105143Y-72549001D02*
X120141428Y-72585287D01*
X120141428Y-72585287D02*
X120177714Y-72657858D01*
X120177714Y-72657858D02*
X120177714Y-72730430D01*
X120177714Y-72730430D02*
X120141428Y-72803001D01*
X120141428Y-72803001D02*
X120105143Y-72839287D01*
X120105143Y-72839287D02*
X120032571Y-72875572D01*
X120032571Y-72875572D02*
X119778571Y-72875572D01*
X120867143Y-72766715D02*
X120867143Y-73274715D01*
X120685714Y-72476430D02*
X120504285Y-73020715D01*
X120504285Y-73020715D02*
X120976000Y-73020715D01*
X128346571Y-73264715D02*
X128346571Y-72502715D01*
X128346571Y-72502715D02*
X128636857Y-72502715D01*
X128636857Y-72502715D02*
X128709428Y-72539001D01*
X128709428Y-72539001D02*
X128745714Y-72575287D01*
X128745714Y-72575287D02*
X128782000Y-72647858D01*
X128782000Y-72647858D02*
X128782000Y-72756715D01*
X128782000Y-72756715D02*
X128745714Y-72829287D01*
X128745714Y-72829287D02*
X128709428Y-72865572D01*
X128709428Y-72865572D02*
X128636857Y-72901858D01*
X128636857Y-72901858D02*
X128346571Y-72901858D01*
X129362571Y-72865572D02*
X129471428Y-72901858D01*
X129471428Y-72901858D02*
X129507714Y-72938144D01*
X129507714Y-72938144D02*
X129544000Y-73010715D01*
X129544000Y-73010715D02*
X129544000Y-73119572D01*
X129544000Y-73119572D02*
X129507714Y-73192144D01*
X129507714Y-73192144D02*
X129471428Y-73228430D01*
X129471428Y-73228430D02*
X129398857Y-73264715D01*
X129398857Y-73264715D02*
X129108571Y-73264715D01*
X129108571Y-73264715D02*
X129108571Y-72502715D01*
X129108571Y-72502715D02*
X129362571Y-72502715D01*
X129362571Y-72502715D02*
X129435143Y-72539001D01*
X129435143Y-72539001D02*
X129471428Y-72575287D01*
X129471428Y-72575287D02*
X129507714Y-72647858D01*
X129507714Y-72647858D02*
X129507714Y-72720430D01*
X129507714Y-72720430D02*
X129471428Y-72793001D01*
X129471428Y-72793001D02*
X129435143Y-72829287D01*
X129435143Y-72829287D02*
X129362571Y-72865572D01*
X129362571Y-72865572D02*
X129108571Y-72865572D01*
X130015714Y-72502715D02*
X130088285Y-72502715D01*
X130088285Y-72502715D02*
X130160857Y-72539001D01*
X130160857Y-72539001D02*
X130197143Y-72575287D01*
X130197143Y-72575287D02*
X130233428Y-72647858D01*
X130233428Y-72647858D02*
X130269714Y-72793001D01*
X130269714Y-72793001D02*
X130269714Y-72974430D01*
X130269714Y-72974430D02*
X130233428Y-73119572D01*
X130233428Y-73119572D02*
X130197143Y-73192144D01*
X130197143Y-73192144D02*
X130160857Y-73228430D01*
X130160857Y-73228430D02*
X130088285Y-73264715D01*
X130088285Y-73264715D02*
X130015714Y-73264715D01*
X130015714Y-73264715D02*
X129943143Y-73228430D01*
X129943143Y-73228430D02*
X129906857Y-73192144D01*
X129906857Y-73192144D02*
X129870571Y-73119572D01*
X129870571Y-73119572D02*
X129834285Y-72974430D01*
X129834285Y-72974430D02*
X129834285Y-72793001D01*
X129834285Y-72793001D02*
X129870571Y-72647858D01*
X129870571Y-72647858D02*
X129906857Y-72575287D01*
X129906857Y-72575287D02*
X129943143Y-72539001D01*
X129943143Y-72539001D02*
X130015714Y-72502715D01*
X135098095Y-66394819D02*
X135098095Y-67204342D01*
X135098095Y-67204342D02*
X135145714Y-67299580D01*
X135145714Y-67299580D02*
X135193333Y-67347200D01*
X135193333Y-67347200D02*
X135288571Y-67394819D01*
X135288571Y-67394819D02*
X135479047Y-67394819D01*
X135479047Y-67394819D02*
X135574285Y-67347200D01*
X135574285Y-67347200D02*
X135621904Y-67299580D01*
X135621904Y-67299580D02*
X135669523Y-67204342D01*
X135669523Y-67204342D02*
X135669523Y-66394819D01*
X136669523Y-67394819D02*
X136098095Y-67394819D01*
X136383809Y-67394819D02*
X136383809Y-66394819D01*
X136383809Y-66394819D02*
X136288571Y-66537676D01*
X136288571Y-66537676D02*
X136193333Y-66632914D01*
X136193333Y-66632914D02*
X136098095Y-66680533D01*
X121356571Y-73214715D02*
X121356571Y-72452715D01*
X121356571Y-72452715D02*
X121646857Y-72452715D01*
X121646857Y-72452715D02*
X121719428Y-72489001D01*
X121719428Y-72489001D02*
X121755714Y-72525287D01*
X121755714Y-72525287D02*
X121792000Y-72597858D01*
X121792000Y-72597858D02*
X121792000Y-72706715D01*
X121792000Y-72706715D02*
X121755714Y-72779287D01*
X121755714Y-72779287D02*
X121719428Y-72815572D01*
X121719428Y-72815572D02*
X121646857Y-72851858D01*
X121646857Y-72851858D02*
X121356571Y-72851858D01*
X122372571Y-72815572D02*
X122481428Y-72851858D01*
X122481428Y-72851858D02*
X122517714Y-72888144D01*
X122517714Y-72888144D02*
X122554000Y-72960715D01*
X122554000Y-72960715D02*
X122554000Y-73069572D01*
X122554000Y-73069572D02*
X122517714Y-73142144D01*
X122517714Y-73142144D02*
X122481428Y-73178430D01*
X122481428Y-73178430D02*
X122408857Y-73214715D01*
X122408857Y-73214715D02*
X122118571Y-73214715D01*
X122118571Y-73214715D02*
X122118571Y-72452715D01*
X122118571Y-72452715D02*
X122372571Y-72452715D01*
X122372571Y-72452715D02*
X122445143Y-72489001D01*
X122445143Y-72489001D02*
X122481428Y-72525287D01*
X122481428Y-72525287D02*
X122517714Y-72597858D01*
X122517714Y-72597858D02*
X122517714Y-72670430D01*
X122517714Y-72670430D02*
X122481428Y-72743001D01*
X122481428Y-72743001D02*
X122445143Y-72779287D01*
X122445143Y-72779287D02*
X122372571Y-72815572D01*
X122372571Y-72815572D02*
X122118571Y-72815572D01*
X123243428Y-72452715D02*
X122880571Y-72452715D01*
X122880571Y-72452715D02*
X122844285Y-72815572D01*
X122844285Y-72815572D02*
X122880571Y-72779287D01*
X122880571Y-72779287D02*
X122953143Y-72743001D01*
X122953143Y-72743001D02*
X123134571Y-72743001D01*
X123134571Y-72743001D02*
X123207143Y-72779287D01*
X123207143Y-72779287D02*
X123243428Y-72815572D01*
X123243428Y-72815572D02*
X123279714Y-72888144D01*
X123279714Y-72888144D02*
X123279714Y-73069572D01*
X123279714Y-73069572D02*
X123243428Y-73142144D01*
X123243428Y-73142144D02*
X123207143Y-73178430D01*
X123207143Y-73178430D02*
X123134571Y-73214715D01*
X123134571Y-73214715D02*
X122953143Y-73214715D01*
X122953143Y-73214715D02*
X122880571Y-73178430D01*
X122880571Y-73178430D02*
X122844285Y-73142144D01*
X119195714Y-65448557D02*
X119195714Y-64548557D01*
X119195714Y-64548557D02*
X119410000Y-64548557D01*
X119410000Y-64548557D02*
X119538571Y-64591414D01*
X119538571Y-64591414D02*
X119624286Y-64677128D01*
X119624286Y-64677128D02*
X119667143Y-64762842D01*
X119667143Y-64762842D02*
X119710000Y-64934271D01*
X119710000Y-64934271D02*
X119710000Y-65062842D01*
X119710000Y-65062842D02*
X119667143Y-65234271D01*
X119667143Y-65234271D02*
X119624286Y-65319985D01*
X119624286Y-65319985D02*
X119538571Y-65405700D01*
X119538571Y-65405700D02*
X119410000Y-65448557D01*
X119410000Y-65448557D02*
X119195714Y-65448557D01*
X120052857Y-64634271D02*
X120095714Y-64591414D01*
X120095714Y-64591414D02*
X120181429Y-64548557D01*
X120181429Y-64548557D02*
X120395714Y-64548557D01*
X120395714Y-64548557D02*
X120481429Y-64591414D01*
X120481429Y-64591414D02*
X120524286Y-64634271D01*
X120524286Y-64634271D02*
X120567143Y-64719985D01*
X120567143Y-64719985D02*
X120567143Y-64805700D01*
X120567143Y-64805700D02*
X120524286Y-64934271D01*
X120524286Y-64934271D02*
X120010000Y-65448557D01*
X120010000Y-65448557D02*
X120567143Y-65448557D01*
X129001905Y-57684819D02*
X129001905Y-56684819D01*
X129001905Y-56684819D02*
X129240000Y-56684819D01*
X129240000Y-56684819D02*
X129382857Y-56732438D01*
X129382857Y-56732438D02*
X129478095Y-56827676D01*
X129478095Y-56827676D02*
X129525714Y-56922914D01*
X129525714Y-56922914D02*
X129573333Y-57113390D01*
X129573333Y-57113390D02*
X129573333Y-57256247D01*
X129573333Y-57256247D02*
X129525714Y-57446723D01*
X129525714Y-57446723D02*
X129478095Y-57541961D01*
X129478095Y-57541961D02*
X129382857Y-57637200D01*
X129382857Y-57637200D02*
X129240000Y-57684819D01*
X129240000Y-57684819D02*
X129001905Y-57684819D01*
X130525714Y-57684819D02*
X129954286Y-57684819D01*
X130240000Y-57684819D02*
X130240000Y-56684819D01*
X130240000Y-56684819D02*
X130144762Y-56827676D01*
X130144762Y-56827676D02*
X130049524Y-56922914D01*
X130049524Y-56922914D02*
X129954286Y-56970533D01*
X123646571Y-73254715D02*
X123646571Y-72492715D01*
X123646571Y-72492715D02*
X123936857Y-72492715D01*
X123936857Y-72492715D02*
X124009428Y-72529001D01*
X124009428Y-72529001D02*
X124045714Y-72565287D01*
X124045714Y-72565287D02*
X124082000Y-72637858D01*
X124082000Y-72637858D02*
X124082000Y-72746715D01*
X124082000Y-72746715D02*
X124045714Y-72819287D01*
X124045714Y-72819287D02*
X124009428Y-72855572D01*
X124009428Y-72855572D02*
X123936857Y-72891858D01*
X123936857Y-72891858D02*
X123646571Y-72891858D01*
X124662571Y-72855572D02*
X124771428Y-72891858D01*
X124771428Y-72891858D02*
X124807714Y-72928144D01*
X124807714Y-72928144D02*
X124844000Y-73000715D01*
X124844000Y-73000715D02*
X124844000Y-73109572D01*
X124844000Y-73109572D02*
X124807714Y-73182144D01*
X124807714Y-73182144D02*
X124771428Y-73218430D01*
X124771428Y-73218430D02*
X124698857Y-73254715D01*
X124698857Y-73254715D02*
X124408571Y-73254715D01*
X124408571Y-73254715D02*
X124408571Y-72492715D01*
X124408571Y-72492715D02*
X124662571Y-72492715D01*
X124662571Y-72492715D02*
X124735143Y-72529001D01*
X124735143Y-72529001D02*
X124771428Y-72565287D01*
X124771428Y-72565287D02*
X124807714Y-72637858D01*
X124807714Y-72637858D02*
X124807714Y-72710430D01*
X124807714Y-72710430D02*
X124771428Y-72783001D01*
X124771428Y-72783001D02*
X124735143Y-72819287D01*
X124735143Y-72819287D02*
X124662571Y-72855572D01*
X124662571Y-72855572D02*
X124408571Y-72855572D01*
X125134285Y-72565287D02*
X125170571Y-72529001D01*
X125170571Y-72529001D02*
X125243143Y-72492715D01*
X125243143Y-72492715D02*
X125424571Y-72492715D01*
X125424571Y-72492715D02*
X125497143Y-72529001D01*
X125497143Y-72529001D02*
X125533428Y-72565287D01*
X125533428Y-72565287D02*
X125569714Y-72637858D01*
X125569714Y-72637858D02*
X125569714Y-72710430D01*
X125569714Y-72710430D02*
X125533428Y-72819287D01*
X125533428Y-72819287D02*
X125098000Y-73254715D01*
X125098000Y-73254715D02*
X125569714Y-73254715D01*
D12*
%TO.C,R1*%
X139537064Y-59505000D02*
X139082936Y-59505000D01*
X139537064Y-60975000D02*
X139082936Y-60975000D01*
%TO.C,Q1*%
X133930000Y-59467500D02*
X133930000Y-58817500D01*
X133930000Y-59467500D02*
X133930000Y-60117500D01*
X137050000Y-59467500D02*
X137050000Y-58817500D01*
X137050000Y-59467500D02*
X137050000Y-60117500D01*
X133980000Y-60630000D02*
X133650000Y-60870000D01*
X133650000Y-60390000D01*
X133980000Y-60630000D01*
G36*
X133980000Y-60630000D02*
G01*
X133650000Y-60870000D01*
X133650000Y-60390000D01*
X133980000Y-60630000D01*
G37*
%TO.C,PB1*%
X126255000Y-70665000D02*
X126950000Y-70665000D01*
X126255000Y-71350000D02*
X126255000Y-70665000D01*
X126255000Y-72035000D02*
X126255000Y-71910000D01*
X126255000Y-72035000D02*
X126341724Y-72035000D01*
X126255000Y-72035000D02*
X127645000Y-72035000D01*
X127558276Y-72035000D02*
X127645000Y-72035000D01*
X127645000Y-72035000D02*
X127645000Y-71910000D01*
D13*
%TO.C,K1*%
X123285000Y-55240000D02*
X123285000Y-55240000D01*
X123285000Y-55240000D02*
X123285000Y-55240000D01*
X123385000Y-55240000D02*
X123385000Y-55240000D01*
D14*
X124015000Y-51740000D02*
X124015000Y-51740000D01*
X124015000Y-51740000D02*
X124015000Y-53740000D01*
X124015000Y-53740000D02*
X124015000Y-51740000D01*
X124015000Y-53740000D02*
X124015000Y-53740000D01*
X129185000Y-48950000D02*
X129185000Y-48950000D01*
X129185000Y-48950000D02*
X133935000Y-48950000D01*
X129185000Y-56450000D02*
X129185000Y-56450000D01*
X129185000Y-56450000D02*
X133935000Y-56450000D01*
X133935000Y-48950000D02*
X129185000Y-48950000D01*
X133935000Y-48950000D02*
X133935000Y-48950000D01*
X133935000Y-56450000D02*
X129185000Y-56450000D01*
X133935000Y-56450000D02*
X133935000Y-56450000D01*
X136515000Y-51740000D02*
X136515000Y-51740000D01*
X136515000Y-51740000D02*
X136515000Y-53740000D01*
X136515000Y-53740000D02*
X136515000Y-51740000D01*
X136515000Y-53740000D02*
X136515000Y-53740000D01*
D13*
X123285000Y-55240000D02*
G75*
G02*
X123385000Y-55240000I50000J0D01*
G01*
X123385000Y-55240000D02*
G75*
G02*
X123285000Y-55240000I-50000J0D01*
G01*
X123385000Y-55240000D02*
G75*
G02*
X123285000Y-55240000I-50000J0D01*
G01*
D12*
%TO.C,C1*%
X121440000Y-63720580D02*
X121440000Y-63439420D01*
X122460000Y-63720580D02*
X122460000Y-63439420D01*
%TO.C,U2*%
X125830000Y-64070000D02*
X128550000Y-64070000D01*
X125970000Y-64070000D02*
X128550000Y-64070000D01*
X128550000Y-65050000D02*
X128550000Y-64070000D01*
X128550000Y-67810000D02*
X128550000Y-68790000D01*
X128550000Y-68790000D02*
X125830000Y-68790000D01*
X125420000Y-64220000D02*
X125180000Y-63890000D01*
X125660000Y-63890000D01*
X125420000Y-64220000D01*
G36*
X125420000Y-64220000D02*
G01*
X125180000Y-63890000D01*
X125660000Y-63890000D01*
X125420000Y-64220000D01*
G37*
%TO.C,C2*%
X126590580Y-62650000D02*
X126309420Y-62650000D01*
X126590580Y-63670000D02*
X126309420Y-63670000D01*
%TO.C,PB4*%
X119225000Y-70665000D02*
X119920000Y-70665000D01*
X119225000Y-71350000D02*
X119225000Y-70665000D01*
X119225000Y-72035000D02*
X119225000Y-71910000D01*
X119225000Y-72035000D02*
X119311724Y-72035000D01*
X119225000Y-72035000D02*
X120615000Y-72035000D01*
X120528276Y-72035000D02*
X120615000Y-72035000D01*
X120615000Y-72035000D02*
X120615000Y-71910000D01*
%TO.C,PB0*%
X128595000Y-70665000D02*
X129290000Y-70665000D01*
X128595000Y-71350000D02*
X128595000Y-70665000D01*
X128595000Y-72035000D02*
X128595000Y-71910000D01*
X128595000Y-72035000D02*
X128681724Y-72035000D01*
X128595000Y-72035000D02*
X129985000Y-72035000D01*
X129898276Y-72035000D02*
X129985000Y-72035000D01*
X129985000Y-72035000D02*
X129985000Y-71910000D01*
%TO.C,U1*%
X130710000Y-64300000D02*
X130710000Y-69600000D01*
X130710000Y-69600000D02*
X140990000Y-69600000D01*
X140990000Y-64300000D02*
X130710000Y-64300000D01*
X140990000Y-65950000D02*
X140990000Y-64300000D01*
X140990000Y-69600000D02*
X140990000Y-67950000D01*
X140990000Y-67950000D02*
G75*
G02*
X140990000Y-65950000I0J1000000D01*
G01*
%TO.C,PB5*%
X121565000Y-70665000D02*
X122260000Y-70665000D01*
X121565000Y-71350000D02*
X121565000Y-70665000D01*
X121565000Y-72035000D02*
X121565000Y-71910000D01*
X121565000Y-72035000D02*
X121651724Y-72035000D01*
X121565000Y-72035000D02*
X122955000Y-72035000D01*
X122868276Y-72035000D02*
X122955000Y-72035000D01*
X122955000Y-72035000D02*
X122955000Y-71910000D01*
%TO.C,D2*%
X120780000Y-65220000D02*
X120780000Y-68880000D01*
X122680000Y-65220000D02*
X120780000Y-65220000D01*
X122680000Y-65220000D02*
X122680000Y-68880000D01*
%TO.C,D1*%
X127490000Y-58160000D02*
X127490000Y-60060000D01*
X127490000Y-58160000D02*
X131150000Y-58160000D01*
X127490000Y-60060000D02*
X131150000Y-60060000D01*
%TO.C,PB2*%
X123905000Y-70675000D02*
X124600000Y-70675000D01*
X123905000Y-71360000D02*
X123905000Y-70675000D01*
X123905000Y-72045000D02*
X123905000Y-71920000D01*
X123905000Y-72045000D02*
X123991724Y-72045000D01*
X123905000Y-72045000D02*
X125295000Y-72045000D01*
X125208276Y-72045000D02*
X125295000Y-72045000D01*
X125295000Y-72045000D02*
X125295000Y-71920000D01*
%TD*%
M02*
